<?xml version="1.0" standalone="no"?>
<!DOCTYPE svg PUBLIC "-//W3C//DTD SVG 1.1//EN" "http://www.w3.org/Graphics/SVG/1.1/DTD/svg11.dtd" >
<svg xmlns="http://www.w3.org/2000/svg" xmlns:xlink="http://www.w3.org/1999/xlink" version="1.1">
<metadata>
Created by FontForge 20170731 at Wed Nov  1 17:12:03 2023
 By Aleksey,,,
Copyright (c) 2016 by HENRIavecunK. All rights reserved.
</metadata>
<defs>
<font id="BeTrueToYourSchool-Regular" horiz-adv-x="1156" >
  <font-face 
    font-family="Be True To Your School"
    font-weight="400"
    font-stretch="normal"
    units-per-em="2048"
    panose-1="0 0 0 0 0 0 0 0 0 0"
    ascent="1718"
    descent="-330"
    x-height="1295"
    cap-height="1296"
    bbox="-92 -274 1557 1718"
    underline-thickness="102"
    underline-position="-307"
    unicode-range="U+0020-2212"
  />
<missing-glyph horiz-adv-x="1024" 
d="M256 128h512v1463h-512v-1463zM128 0v1718h768v-1718h-768z" />
    <glyph glyph-name=".notdef" horiz-adv-x="1024" 
d="M256 128h512v1463h-512v-1463zM128 0v1718h768v-1718h-768z" />
    <glyph glyph-name=".null" horiz-adv-x="0" 
 />
    <glyph glyph-name="nonmarkingreturn" horiz-adv-x="682" 
 />
    <glyph glyph-name="space" unicode=" " horiz-adv-x="563" 
 />
    <glyph glyph-name="exclam" unicode="!" horiz-adv-x="411" 
d="M92 442h120l55 804h-215zM52 259v-209h217v209h-217zM294 284h-267v-260h267v260zM319 309v-309h-316v309h316zM294 1273h-269l42 -858h168zM321 1296l-64 -904h-212l-45 904h321z" />
    <glyph glyph-name="quotedbl" unicode="&#x22;" horiz-adv-x="867" 
d="M50 879h64l153 190v177h-217v-367zM467 879h64l153 190v177h-217v-367zM293 1273h-269v-421h102l167 209v212zM318 1296v-243l-180 -224h-138v467h318zM710 1273h-269v-421h102l167 209v212zM735 1296v-243l-180 -224h-138v467h318z" />
    <glyph glyph-name="dollar" unicode="$" horiz-adv-x="988" 
d="M805 935h-218v57l-46 45h-227l-45 -45v-198l45 -46h332l159 -158v-387l-153 -153h-171v-122h-109v122h-167l-155 155v157h219v-58l45 -45h227l46 45v200l-46 46h-331l-160 160v375l160 161h162v123h109v-123h165l159 -161v-150zM506 1396h-161v-123h-145l-176 -177v-397
l176 -176h331l29 -29v-180l-30 -28h-205l-31 28v74h-270v-195l169 -169h152v-123h161v123h156l169 168v408l-174 175h-332l-31 29v178l31 29h205l30 -29v-74h271v188l-174 177h-151v123zM531 1419v-123h135l190 -190v-222h-320v88l-15 15h-186l-16 -15v-158l16 -15h333
l188 -189v-428l-183 -182h-142v-123h-210v123h-138l-183 183v229h319v-87l16 -16h185l16 16v159l-15 15h-331l-190 190v417l190 190h131v123h210z" />
    <glyph glyph-name="percent" unicode="%" horiz-adv-x="1331" 
d="M1115 1248l-779 -1198h-240l778 1196zM799 504h272l89 -89v-275l-89 -90h-272l-88 88v279zM1053 190v178l-26 25h-185l-23 -23v-185l22 -22h183zM410 794h-272l-88 87v279l88 88h272l89 -89v-276zM392 933v178l-25 24h-185l-24 -24v-183l22 -23h183zM1206 1296
l-843 -1296h-360l844 1296h359zM350 24l812 1249h-303l-812 -1249h303zM852 367h165l9 -9v-156l-12 -14h-162l-8 9v161zM1002 212v131h-133v-131h133zM1098 548l104 -104l7 -9v-8v-298v-10l-7 -6l-104 -105l-7 -6h-10h-294h-10l-7 6l-102 103l-7 7v10v301v10l7 7l102 102
l7 7h10h294h10zM1185 129v298l-104 104h-294l-103 -102v-301l103 -103h294zM192 1110h164l9 -10v-157l-12 -11h-161l-9 6v163zM341 955v130h-133v-130h133zM109 750l-102 102l-7 7v10v301v10l7 7l102 103l7 6h10h294h10l7 -6l104 -105l9 -6v-10v-298v-8l-9 -9l-104 -104
l-7 -7h-10h-294h-10zM24 1170v-301l102 -102h294l105 104v298l-105 104h-294z" />
    <glyph glyph-name="ampersand" unicode="&#x26;" horiz-adv-x="1074" 
d="M932 557h-127v-256l42 -42h85v-209h-192l-46 46l-43 -46h-446l-155 155v347l122 121l-122 121v297l155 155h447l153 -153v-148h-218v47l-47 45h-226l-45 -45v-192l45 -45h271v72h220v-72h127v-198zM314 259h229l42 42v256h-143h-126l-47 -48v-205zM662 1273h-469
l-169 -170v-319l111 -111l-111 -110v-368l169 -171h468l33 35l34 -35h229v262h-99l-27 27v217h126v252h-126v72h-273v-72h-233l-31 30v170l31 29h205l30 -31v-62h271v187zM325 286l-31 28v185l32 31h232v-217l-27 -27h-206zM673 1296l183 -183v-218h-320v75l-16 17h-185
l-16 -15v-151l16 -16h200v73h321v-73h126v-299h-126v-183l12 -14h114v-309h-262l-26 25l-23 -25h-486l-185 185v388l101 100l-101 100v338l185 185h488zM336 506l-17 -17v-164l16 -16h186l14 14v183h-199z" />
    <glyph glyph-name="quotesingle" unicode="'" horiz-adv-x="450" 
d="M50 879h64l153 190v177h-217v-367zM293 1273h-269v-421h102l167 209v212zM318 1296v-243l-180 -224h-138v467h318z" />
    <glyph glyph-name="parenleft" unicode="(" horiz-adv-x="763" 
d="M50 247l354 -353h178v209h-106l-209 208v678l209 208h106v209h-178l-354 -353v-806zM607 1431h-214l-369 -368v-826l369 -370h214v262h-121l-192 192v656l192 193h121v261zM631 1456v-309h-135l-178 -180v-636l178 -178h135v-309h-248l-383 383v846l383 383h248z" />
    <glyph glyph-name="parenright" unicode=")" horiz-adv-x="763" 
d="M50 -106h177l353 353v804l-353 353h-177v-208h105l208 -209v-676l-208 -208h-105v-209zM237 1429h-213v-260h121l193 -192v-656l-193 -193h-121v-261h213l370 368v826zM247 1454l384 -383v-844l-384 -383h-247v309h135l178 178v636l-178 178h-135v309h247z" />
    <glyph glyph-name="plus" unicode="+" horiz-adv-x="944" 
d="M489 274v272h273v169h-273v272h-168v-272h-271v-169h271v-272h168zM516 1014h-220v-272h-272v-222h272v-273h220v273h273v222h-273v272zM540 1037v-272h272v-269h-272v-272h-268v272h-272v269h272v272h268z" />
    <glyph glyph-name="comma" unicode="," horiz-adv-x="410" 
d="M50 -109h64l153 190v176h-217v-366zM293 282h-269v-418h102l167 207v211zM318 308v-246l-180 -222h-138v468h318z" />
    <glyph glyph-name="hyphen" unicode="-" horiz-adv-x="615" 
d="M50 715v-169h402v169h-402zM479 740h-455v-220h455v220zM503 765v-269h-503v269h503z" />
    <glyph glyph-name="period" unicode="." horiz-adv-x="410" 
d="M50 259v-209h217v209h-217zM293 284h-269v-260h269v260zM318 309v-309h-318v309h318z" />
    <glyph glyph-name="zero" unicode="0" horiz-adv-x="975" 
d="M856 1113v-930l-183 -183h-488l-185 185v926l185 185h488zM831 192l1 913l-170 168h-469l-169 -170v-908l169 -171h2h467zM652 1246l153 -153v-890l-153 -153h-447v0l-155 155v886l155 155h447zM587 304v688l-46 45h-227l-45 -45v-688l45 -45h227zM325 1011h206l29 -29
v-668l-29 -28h-206l-29 28v668zM536 325v647l-15 15h-186l-16 -15v-647l16 -16h186z" />
    <glyph glyph-name="one" unicode="1" horiz-adv-x="612" 
d="M388 259h81v-209h-382v209h83v778h-120v209h338v-987zM414 1273h-390v-261h119v-726h-81v-262h432v262h-80v987zM439 1296v-987h81v-309h-483v309h82v678h-119v309h439z" />
    <glyph glyph-name="two" unicode="2" horiz-adv-x="939" 
d="M805 1091v-397l-437 -435h437v-209h-755v199l537 533v210l-46 45h-228l-44 -45v-136h-219v237l153 153h448zM661 1273h-469l-168 -168v-276h270v153l31 29h205l30 -29v-190l-536 -533v-235h807v262h-399l399 398v419zM671 1296l185 -185v-437l-367 -365h367v-309h-856
v269l536 533v170l-15 15h-186l-16 -15v-167h-319v310l182 181h489z" />
    <glyph glyph-name="three" unicode="3" horiz-adv-x="944" 
d="M802 1093v-296l-121 -121l121 -119v-347l-155 -155h-442l-155 155v153h217v-55l44 -44h229l45 45v206l-47 45h-171v198h173l45 46v191l-45 44h-227l-46 -45v-52h-217v153l152 153h445zM659 1273h-467l-168 -167v-191h270v69l31 30h203l30 -30v-170l-30 -30h-187v-249h187
l30 -32v-184l-28 -30h-207l-29 29v70h-270v-188l169 -170h466l170 168v369l-111 109l111 111v318zM669 1298l183 -183v-338l-100 -101l100 -99v-387l-183 -183h-486l-183 183v222h318v-84l15 -14h187l15 16v163l-17 18h-200v298h200l17 15v150l-15 16h-185l-17 -16v-83h-318
v225l182 182h487z" />
    <glyph glyph-name="four" unicode="4" horiz-adv-x="1027" 
d="M884 378h-119v-119h81v-209h-380v209h80v119h-496v197l397 671h318v-669h119v-199zM546 577v460l-292 -460h292zM790 1273h-358l-408 -691v-231h496v-65h-81v-262h434v262h-83v65h120v253h-120v669zM301 604l219 338v-338h-219zM816 1296v-669h117v-299h-117v-19h80v-309
h-481v309h81v19h-496v261l419 707h397zM345 627h151v234z" />
    <glyph glyph-name="five" unicode="5" horiz-adv-x="948" 
d="M805 1037h-536v-228h377l159 -158v-446l-154 -155h-446l-155 155v197h219v-98l44 -45h228l46 45v261l-46 45h-491v636h755v-209zM831 1273h-807v-690h506l30 -30v-237l-30 -30h-205l-31 28v115h-270v-234l169 -171h468l170 171v466l-174 175h-363v175h537v262zM856 1296
v-309h-537v-128h349l188 -188v-486l-185 -185h-486l-185 185v267h319v-127l16 -16h185l16 17v219l-16 15h-520v736h856z" />
    <glyph glyph-name="six" unicode="6" horiz-adv-x="948" 
d="M805 930h-218v57l-46 45h-227l-45 -47v-235h385l151 -151v-399l-156 -155h-444l-155 155v888l155 153h447l153 -153v-158zM540 552h-271v-254l44 -44h228l46 44v206zM662 1266h-469l-169 -168v-910l169 -170h468l170 170v421l-167 166h-370v200l31 31h205l30 -29v-74h271
v195zM323 279l-29 29v217h236l30 -31v-185l-29 -30h-208zM673 1290l181 -182v-229h-318v88l-15 15h-186l-17 -17v-166h356l180 -180v-441l-183 -183h-488l-183 183v930l185 182h488zM318 501v-183l15 -15h188l15 16v165l-16 17h-202z" />
    <glyph glyph-name="seven" unicode="7" horiz-adv-x="847" 
d="M705 1246v-202l-295 -785h81v-209h-400v209h81v-2l292 780h-205v-80h-209v289h655zM731 1271h-707v-341h260v81h143l-272 -727h-91v-260h454v260h-71l284 755v232zM755 1296l-2 -265l-270 -722h58v-309h-501v309h98l254 678h-83v-81h-309v390h755z" />
    <glyph glyph-name="eight" unicode="8" horiz-adv-x="948" 
d="M805 1091v-297l-121 -121l121 -121v-347l-154 -155h-446l-155 155v347l122 121l-122 121v297l155 155h446zM587 992l-46 45h-227l-45 -45v-192l45 -45h227l46 45v192zM269 511v-207l45 -45h227l46 45v207l-46 46h-227zM661 1273h-468l-169 -170v-319l111 -111l-111 -110
v-368l169 -171h468l170 171v368l-110 110l110 111v319zM325 782l-31 30v168l31 31h205l30 -29v-172l-30 -28h-205zM325 286l-31 28v187l31 29h206l29 -29v-187l-29 -28h-206zM671 1296l185 -185v-338l-101 -100l101 -100v-388l-185 -185h-486l-185 185v388l101 100l-101 100
v338l185 185h486zM335 987l-16 -15v-150l16 -17h185l16 16v151l-15 15h-186zM335 506l-16 -15v-166l16 -16h186l15 16v166l-15 15h-186z" />
    <glyph glyph-name="nine" unicode="9" horiz-adv-x="948" 
d="M49 355h218v-57l46 -46h227l45 47v236h-385l-151 151v399l156 154h444l155 -154v-888l-155 -153h-447l-153 153v158zM314 733h271v254l-44 44h-228l-46 -44v-207zM192 18h469l170 169v909l-170 170h-468l-169 -170v-420l166 -167h370v-200l-30 -30h-205l-31 29v74h-270
v-195zM531 1006l29 -29v-217h-235l-31 30v185l29 31h208zM182 -5l-182 182v228h318v-87l15 -15h187l16 16v167h-356l-180 180v440l183 184h488l183 -184v-929l-185 -182h-487zM536 784v183l-15 15h-188l-15 -17v-165l17 -16h201z" />
    <glyph glyph-name="colon" unicode=":" horiz-adv-x="410" 
d="M50 958v-208h217v208h-217zM50 259v-209h217v209h-217zM293 984h-269v-261h269v261zM318 1009v-310h-318v310h318zM293 284h-269v-260h269v260zM318 309v-309h-318v309h318z" />
    <glyph glyph-name="semicolon" unicode=";" horiz-adv-x="410" 
d="M50 -109h64l153 190v176h-217v-366zM293 282h-269v-418h102l167 207v211zM318 308v-246l-180 -222h-138v468h318zM50 958v-208h217v208h-217zM293 984h-269v-261h269v261zM318 1009v-310h-318v310h318z" />
    <glyph glyph-name="equal" unicode="=" horiz-adv-x="909" 
d="M50 911v-168h712v168h-712zM50 516v-168h712v168h-712zM789 543h-765v-222h765v222zM812 567v-269h-812v269h812zM789 938h-765v-222h765v222zM812 962v-269h-812v269h812z" />
    <glyph glyph-name="question" unicode="?" horiz-adv-x="941" 
d="M286 50v209h217v-209h-217zM646 1246l153 -153v-362l-296 -247v-49h-217v132l296 249v176l-46 45h-223l-46 -45v-153h-217v254l153 153h443zM528 284h-269v-260h269v260zM553 309v-309h-318v309h318zM656 1273h-464l-168 -170v-291h269v168l30 31h202l30 -31v-153
l-296 -247v-170h269v61l296 249v383zM666 1296l183 -183v-405l-296 -247v-74h-318v203l296 249v131l-16 17h-182l-15 -17v-181h-318v324l182 183h484z" />
    <glyph glyph-name="at" unicode="@" horiz-adv-x="1262" 
d="M730 947l50 -51v-321l93 -87l94 89v452l-101 101h-597l-101 -101v-762l101 -101h698v-114h-762l-155 155v886l155 155h720l154 -155v-580l-161 -160h-91l-106 106l-107 -106h-212l-49 49v494l49 51h328zM558 474l99 103v249h-185v-352h86zM935 1273h-742l-169 -170v-908
l169 -170h799v167h-713l-86 85v740l86 86h575l86 -86v-428l-67 -66l-68 64v321l-63 64h-350l-66 -64v-516l66 -66h233l96 96l95 -96h114l175 177v600zM498 499v300h133v-212l-83 -88h-50zM945 1296l185 -183v-620l-192 -190h-131l-86 85l-87 -85h-252l-79 79v534l79 79h370
l79 -77v-321l42 -40l43 42v410l-72 70h-555l-70 -72v-719l70 -73h728v-213h-834l-183 183v928l183 183h762zM523 775v-252h15l69 74v178h-84z" />
    <glyph glyph-name="A" unicode="A" horiz-adv-x="1138" 
d="M889 259h81v-209h-353v209h37l-23 121h-244l-24 -121h37v-209h-353v209h81l166 778h-35v209h499v-209h-37zM424 558h170l-86 416zM234 1273v-261h28l-156 -726h-86v-261h407v261h-32l14 67h200l13 -67h-32v-261h407v261h-86l-156 726h29v261h-550zM456 583l52 259
l54 -259h-106zM208 1296h599v-309h-23l146 -678h91v-307h-454v307h27l-5 21h-160l-5 -21h27v-307h-454v307h89l148 678h-26v309zM484 609h47l-23 114z" />
    <glyph glyph-name="B" unicode="B" horiz-adv-x="1064" 
d="M881 1093v-308l-121 -121l121 -121v-338l-155 -155h-676v209h74v780h-74v209h676zM343 1039v-282h274l45 43v194l-45 45h-274zM343 557v-298h274l45 45v209l-45 44h-274zM24 1273v-261h75v-726h-75v-261h712l170 170v358l-109 111l109 109v330l-170 170h-712zM370 782
v230h235l31 -30v-170l-31 -30h-235zM370 286v245h235l31 -30v-185l-31 -30h-235zM0 1298h747l185 -185v-348l-101 -101l101 -101v-378l-185 -185h-747v309h76v680h-76v309zM393 989v-184h204l15 17v150l-17 17h-202zM393 508v-199h202l17 17v165l-17 17h-202z" />
    <glyph glyph-name="C" unicode="C" horiz-adv-x="987" 
d="M805 834h-218v158l-46 45h-228l-44 -45v-688l45 -45h227l46 45v174h218v-273l-156 -155h-444l-155 155v886l155 155h444l156 -155v-257zM661 1271h-468l-169 -170v-908l169 -169h468l170 171v308h-271v-189l-30 -30h-205l-31 30v666l31 31h205l30 -31v-173h271v294z
M671 1295l183 -184v-327h-318v186l-16 17h-185l-17 -15v-647l17 -16h185l16 16v203h318v-343l-183 -185h-486l-185 183v928l185 184h486z" />
    <glyph glyph-name="D" unicode="D" horiz-adv-x="1049" 
d="M711 1246l155 -155v-886l-155 -155h-661v209h81v778h-81v209h661zM647 304v688l-45 45h-252v-778h252zM721 1273h-697v-262h80v-725h-80v-262h697l170 171v908zM375 286v725h215l30 -29v-668l-30 -28h-215zM731 1296l185 -185v-926l-185 -185h-731v309h81v678h-81v309
h731zM400 987v-678h182l15 16v647l-17 15h-180z" />
    <glyph glyph-name="E" unicode="E" horiz-adv-x="1020" 
d="M50 1246h789v-289h-208v80h-281v-282h279v-198h-279v-298h281v81h208v-290h-789v209h81v778h-81v209zM864 1273h-840v-262h80v-725h-80v-262h840v341h-260v-79h-229v244h279v252h-279v229h229v-81h260v343zM888 1296v-390h-308v81h-180v-182h278v-299h-278v-197h180v81
h308v-390h-888v309h81v678h-81v309h888z" />
    <glyph glyph-name="F" unicode="F" horiz-adv-x="1030" 
d="M629 957v80h-279v-282h277v-198h-277v-298h139v-209h-439v209h81v778h-81v209h787v-289h-208zM886 906h-308v81h-178v-182h276v-299h-276v-197h140v-309h-540v309h81v678h-81v309h886v-390zM375 1011h227v-81h261v343h-839v-262h80v-725h-80v-262h491v262h-140v244h277
v252h-277v229z" />
    <glyph glyph-name="G" unicode="G" horiz-adv-x="988" 
d="M805 834h-218v158l-46 45h-227l-45 -45v-688l45 -45h227l46 45v212h-99v199h317v-510v-2l-153 -153h-1h-446v0l-155 155v886l155 155h447l153 -153v-2v-257zM662 1273h-469l-169 -170v-908l169 -171h2h456h11l169 168v1l1 2l-1 547h-370v-251h99v-177l-29 -28h-206
l-29 28v668l29 29h206l29 -29v-175h272v296h-1v2zM673 1296l183 -181v-2v-2v-327h-320v188l-15 15h-186l-16 -15v-647l16 -16h186l15 16v142h-99v298h419v-580v-2l-183 -183h-488l-185 185v926l185 185h488z" />
    <glyph glyph-name="H" unicode="H" horiz-adv-x="1165" 
d="M982 1246v-209h-81v-778h81v-209h-380v209h81v298h-333v-298h80v-209h-380v209h81v778h-81v209h380v-209h-80v-272h333v272h-79v209h378zM0 987v309h479v-309h-79v-171h232v171h-79v309h478l1 -309h-80v-678h79l1 -309h-480v309h80v197h-232v-197h79v-309h-479v309h81
v678h-81zM456 1011v262h-432v-262h80v-725h-80v-262h432v262h-81v244h281v-244h-81v-262h432v235v27h-81v725h81v262h-429v-262h78v-219h-281v219h81z" />
    <glyph glyph-name="I" unicode="I" horiz-adv-x="612" 
d="M350 259v778h80v209v0h-380v-209h81v-778h-81v0v-209h380v209h-80zM24 1273v-262h80v-725h-80v-262h432v262h-81v725h81v260zM0 1296h479v-309h-79v-678h79v-309h-479v309h81v678h-81v309z" />
    <glyph glyph-name="J" unicode="J" horiz-adv-x="1069" 
d="M802 1246h81v-209h-81v-832l-155 -155h-442l-155 155v331h219v-232l45 -45h224l45 45v733h-80v209h80h219zM908 1273h-432v-262h81v-697l-29 -28h-203l-31 28v249h-270v-368l169 -171h464l170 171v816h81v262zM933 1296v-309h-81v-802l-184 -185h-483l-185 185v402h319
v-262l16 -16h183l15 16v662h-81v309h481z" />
    <glyph glyph-name="K" unicode="K" horiz-adv-x="1138" 
d="M849 1041l-254 -308l249 -474h111v-209h-447v209h102l-154 304l-106 -131v-173h27v-209h-327v209h81v782h-81v208h327v-208h-27v-299l242 299h-84v208h447v-208h-106zM980 1276h-499v-262h55l-161 -198v198h27v262h-378v-262h80v-728h-80v-262h378v262h-27v138l76 91
l117 -229h-87v-262h499v262h-119l-234 444l236 284h117v262zM1006 1300v-310h-132l-218 -264l218 -417h132v-309h-549v309h73l-84 163l-46 -57v-106h25v-309h-425v309h81v681h-81v310h425v-310h-25v-107l88 107h-31v310h549z" />
    <glyph glyph-name="L" unicode="L" horiz-adv-x="963" 
d="M590 340v-81h-240v778h79v209h-379v-209h81v-778h-81v-209h749v290h-209zM540 390h307v-390h-847v309h81v678h-81v309h479v-309h-79v-678h140v81zM563 286h-188v725h81v262h-432v-262h80v-725h-80v-262h800v343h-261v-81z" />
    <glyph glyph-name="M" unicode="M" horiz-adv-x="1469" 
d="M1286 1246v-209h-80v-778h80v-209h-360v209h81v590q0 -1 -339 -597l-338 597v-590h80v-209h-360v209h81v778h-81v209h280l338 -597l339 597h279zM979 1296h358v-309h-81v-678h81v-309h-459v309h79v350l-289 -509l-288 509v-350h79v-309h-459v309h81v678h-81v309h358
l310 -546zM1313 1011v262h-321l-324 -572l-323 572h-321v-262h80v-725h-80v-262h411v262h-80v464l313 -552l312 552v-464h-79v-262h412v262h-81v725h81z" />
    <glyph glyph-name="N" unicode="N" horiz-adv-x="1170" 
d="M987 1246v-209h-81v-987h-299l-277 839v-630h79v-209h-359v209h81v778h-81v209h379l281 -799v590h-81v209h358zM1012 1273h-410v-262h81v-411l-236 673h-423v-262h80v-725h-80v-262h411v262h-80v440l234 -702h343v987h80v262zM1036 1296v-309h-79v-987h-385l-192 580
v-271h79v-309h-459v309h81v678h-81v309h464l195 -554v245h-81v309h458z" />
    <glyph glyph-name="O" unicode="O" horiz-adv-x="975" 
d="M856 1113v-930l-183 -183h-488l-185 185v926l185 185h488zM831 192l1 913l-170 168h-469l-169 -170v-908l169 -171h2h467zM652 1246l153 -153v-890l-153 -153h-447v0l-155 155v886l155 155h447zM587 304v688l-46 45h-227l-45 -45v-688l45 -45h227zM325 1011h206l29 -29
v-668l-29 -28h-206l-29 28v668zM536 325v647l-15 15h-186l-16 -15v-647l16 -16h186z" />
    <glyph glyph-name="P" unicode="P" horiz-adv-x="1049" 
d="M711 1246l155 -155v-472l-155 -155h-361v-205h80v-209h-380v209h81v778h-81v209h661zM350 1037v-364h252l45 45v274l-45 45h-252zM721 1273h-697v-262h80v-725h-80v-262h432v262h-81v151h346l170 172v492zM375 699v312h217l28 -29v-254l-30 -29h-215zM731 1296l185 -185
v-512l-185 -185h-331v-105h79v-309h-479v309h81v678h-81v309h731zM400 987v-264h182l15 15v234l-15 15h-182z" />
    <glyph glyph-name="Q" unicode="Q" horiz-adv-x="988" 
d="M325 1011h206l29 -29v-668l-29 -28h-206l-29 28v668zM536 325v647l-15 15h-186l-16 -15v-647l16 -16h186zM651 50l117 -218h-237l-117 218h-209v0l-155 155v886l155 155h447l153 -153v-890l-153 -153h-1zM587 304v688l-46 45h-227l-45 -45v-688l45 -45h227zM713 40
l138 -259h-350l-116 219h-200l-185 185v926l185 185h488l183 -183v-930zM516 -195h296l-129 240l148 147l1 913l-170 168h-469l-169 -170v-908l169 -171h206z" />
    <glyph glyph-name="R" unicode="R" horiz-adv-x="1008" 
d="M866 1091v-472l-150 -150l68 -210h82v-209h-234l-133 414h-149v-205h80v-209h-380v209h81v778h-81v209h661zM350 673h252l45 45v274l-45 45h-252v-364zM721 1273h-697v-262h80v-725h-80v-262h432v262h-81v151h104l133 -413h279v262h-87l-57 176l144 147v492zM375 699v312
h217l28 -29v-254l-30 -29h-215zM731 1296l185 -185v-512l-143 -143l48 -147h95v-309h-321l-133 414h-62v-105h79v-309h-479v309h81v678h-81v309h731zM400 987v-264h182l15 15v234l-15 15h-182z" />
    <glyph glyph-name="S" unicode="S" horiz-adv-x="948" 
d="M805 935h-218v57l-46 45h-227l-45 -45v-198l45 -46h332l159 -158v-387l-153 -153h-447l-155 155v157h219v-58l45 -45h227l46 45v200l-46 46h-331l-160 161v375l160 160h436l159 -160v-151zM657 1273h-457l-176 -177v-397l176 -176h330l30 -29v-180l-30 -28h-205l-31 28
v74h-270v-195l169 -169h469l169 168v408l-174 175h-332l-31 29v178l31 29h205l30 -29v-74h271v188zM668 1296l188 -190v-222h-320v88l-15 15h-186l-16 -15v-158l16 -15h333l188 -189v-428l-183 -182h-488l-185 185v227h319v-87l16 -16h186l15 16v159l-15 15h-331l-190 190
v417l190 190h478z" />
    <glyph glyph-name="T" unicode="T" horiz-adv-x="1066" 
d="M923 1246v-289h-208v80h-118v-778h81v-209h-380v209h80v0v778h-119v-80h-209v289h873zM24 1273v-341h260v80l67 -1v-725h-80v-262h434v262h-81v725h65v-81h261v343h-926zM0 1296h974v-390h-308v81h-19v-678h81v-309h-481v309h81v678h-19v-81l-309 2v388z" />
    <glyph glyph-name="U" unicode="U" horiz-adv-x="1108" 
d="M587 1244h378v-208h-81v-831l-154 -155h-444l-155 155v831h-81v208h380v-208h-80v-732l43 -45h227l46 45v732h-79v208zM24 1271v-260h80v-818l170 -169h468l169 169v818h81v260h-432v-260h81v-697l-31 -30h-205l-30 30v697h81v260h-432zM0 1295h479v-308h-80v-662l16 -16
h185l17 16v662h-81v308h480v-308h-81v-802l-183 -185h-488l-183 185v802h-81v308z" />
    <glyph glyph-name="V" unicode="V" horiz-adv-x="1118" 
d="M570 1296h454v-309h-89l-146 -678h23v-309h-598v309h23l-146 678h-91v309h454v-309h-27h2l84 -414l84 414h-27v309zM1000 1011v262h-406v-262h31v-2l2 2l-114 -557l-114 557h31v262h-406v-262h85l157 -725h-29v-262h552v262h-31l157 725h85zM513 325l144 712h-37v209h355
v-209h-80l-169 -778h36v-209h-500v209h37l-168 778h-81v209h355v-209h-38z" />
    <glyph glyph-name="W" unicode="W" horiz-adv-x="1649" 
d="M1507 1037h-103l-165 -778h81v-209h-464v209h37l-113 535l-116 -535h37v-209h-464v209h81l-165 778h-103v209h359v-209h-39l123 -613l132 613h-36v209h380v-209h-36l131 -613l123 613h-39v209h359v-209zM1533 1273h-411v-262h33l-92 -459l-98 459h29v262h-431v-262h29
l-98 -459l-92 459h33v262h-411v-262h109l153 -725h-74v-262h514v262h-28l82 383l81 -383h-30v-262h516v262h-76l153 725h109v262zM0 1296h459v-309h-29l64 -318l69 318h-23v309h479v-309h-25l69 -318l59 318h-24v309h459v-309h-113l-143 -678h69v-309h-563v309h24h1l-52 246
l-54 -246h24v-309h-563v309h69l-143 678h-113v309z" />
    <glyph glyph-name="X" unicode="X" horiz-adv-x="1220" 
d="M649 1248l429 -2v-209h-108l-289 -388l289 -390h108v-209h-429v209h86l-172 232l-171 -232h86v-209h-428v209h106l291 390l-291 388h-106v209l428 2v-209h-86l171 -232l172 232h-86v209zM624 1273v-261h59l-120 -161l-119 161h60v261h-480v-262h121l269 -362l-269 -363
h-121v-261l480 -1v260h-60l119 163l120 -163h-59v-260l479 1v261h-119l-271 363l271 362h119v262h-479zM600 1296h528v-309h-133l-252 -338l252 -340h133v-307l-528 -2v308h36l-73 99l-72 -99h37v-308l-528 2v307h131l252 340l-252 338h-131v309h528v-307h-37l72 -98l73 98
h-36v307z" />
    <glyph glyph-name="Y" unicode="Y" horiz-adv-x="1010" 
d="M540 1246h328v-209h-88l-212 -480v-298h81v0v-209h-380v0v209h81v298l-214 480h-86v209h328v-209h-27l108 -237l106 237h-25v209zM513 1273v-262h12l-66 -147l-66 147h11v262h-380v-262h95l204 -461v-264h-81v-262h434v262h-27h-55v264l203 461h98v262h-382zM489 1296
h429v-309h-104l-195 -442v-236h80v-309h-480v309h80v236l-195 442h-104v309h429v-306l30 -69l30 69v306z" />
    <glyph glyph-name="Z" unicode="Z" horiz-adv-x="830" 
d="M479 355h209v-305h-638v209l397 778h-188v-79h-209v288h634v-209l-396 -778h191v96zM711 1273h-687v-341h260v80h120l-380 -746v-241h689v355h-261v-94h-121l380 746v241zM735 1296v-270l-365 -717h59v96h307v-405h-736v271l365 716h-56v-79h-309v388h735z" />
    <glyph glyph-name="bracketright" unicode="]" horiz-adv-x="1469" 
 />
    <glyph glyph-name="grave" unicode="`" horiz-adv-x="751" 
d="M173 1602l84 -188h99v188h-183zM383 1628h-252l109 -241h143v241zM407 1653v-289h-182l-131 289h313z" />
    <glyph glyph-name="a" unicode="a" 
d="M895 259h80v-209h-355v209h37l-23 119h-244l-23 -119h37v-209h-354v209h81l212 987h340zM427 558h170l-84 414zM323 1271l-214 -985h-85v-262h406v262h-31l13 67h200l13 -67h-31v-262h406v262h-85l-212 985h-380zM459 583l54 259l52 -259h-106zM303 1296h420l212 -987h89
v-309h-454v309h27l-5 21h-160l-5 -21h27v-309h-454v309h91zM489 607h47l-23 116z" />
    <glyph glyph-name="b" unicode="b" horiz-adv-x="1064" 
d="M881 1093v-308l-121 -121l121 -121v-338l-155 -155h-676v209h74v780h-74v209h676zM343 1039v-282h274l45 43v194l-45 45h-274zM343 557v-298h274l45 45v209l-45 44h-274zM24 1273v-261h75v-726h-75v-261h712l170 170v358l-109 111l109 109v330l-170 170h-712zM370 782
v230h235l31 -30v-170l-31 -30h-235zM370 286v245h235l31 -30v-185l-31 -30h-235zM0 1298h747l185 -185v-348l-101 -101l101 -101v-378l-185 -185h-747v309h76v680h-76v309zM393 989v-184h204l15 17v150l-17 17h-202zM393 508v-199h202l17 17v165l-17 17h-202z" />
    <glyph glyph-name="c" unicode="c" horiz-adv-x="987" 
d="M805 834h-218v158l-46 45h-228l-44 -45v-688l45 -45h227l46 45v174h218v-273l-156 -155h-444l-155 155v886l155 155h444l156 -155v-257zM661 1271h-468l-169 -170v-908l169 -169h468l170 171v308h-271v-189l-30 -30h-205l-31 30v666l31 31h205l30 -31v-173h271v294z
M671 1295l183 -184v-327h-318v186l-16 17h-185l-17 -15v-647l17 -16h185l16 16v203h318v-343l-183 -185h-486l-185 183v928l185 184h486z" />
    <glyph glyph-name="d" unicode="d" horiz-adv-x="1049" 
d="M711 1246l155 -155v-886l-155 -155h-661v209h81v778h-81v209h661zM647 304v688l-45 45h-252v-778h252zM721 1273h-697v-262h80v-725h-80v-262h697l170 171v908zM375 286v725h215l30 -29v-668l-30 -28h-215zM731 1296l185 -185v-926l-185 -185h-731v309h81v678h-81v309
h731zM400 987v-678h182l15 16v647l-17 15h-180z" />
    <glyph glyph-name="e" unicode="e" horiz-adv-x="1020" 
d="M50 1246h789v-289h-208v80h-281v-282h279v-198h-279v-298h281v81h208v-290h-789v209h81v778h-81v209zM864 1273h-840v-262h80v-725h-80v-262h840v341h-260v-79h-229v244h279v252h-279v229h229v-81h260v343zM888 1296v-390h-308v81h-180v-182h278v-299h-278v-197h180v81
h308v-390h-888v309h81v678h-81v309h888z" />
    <glyph glyph-name="f" unicode="f" horiz-adv-x="1030" 
d="M629 957v80h-279v-282h277v-198h-277v-298h139v-209h-439v209h81v778h-81v209h787v-289h-208zM886 906h-308v81h-178v-182h276v-299h-276v-197h140v-309h-540v309h81v678h-81v309h886v-390zM375 1011h227v-81h261v343h-839v-262h80v-725h-80v-262h491v262h-140v244h277
v252h-277v229z" />
    <glyph glyph-name="g" unicode="g" horiz-adv-x="988" 
d="M805 834h-218v158l-46 45h-227l-45 -45v-688l45 -45h227l46 45v212h-99v199h317v-510v-2l-153 -153h-1h-446v0l-155 155v886l155 155h447l153 -153v-2v-257zM662 1273h-469l-169 -170v-908l169 -171h2h456h11l169 168v1l1 2l-1 547h-370v-251h99v-177l-29 -28h-206
l-29 28v668l29 29h206l29 -29v-175h272v296h-1v2zM673 1296l183 -181v-2v-2v-327h-320v188l-15 15h-186l-16 -15v-647l16 -16h186l15 16v142h-99v298h419v-580v-2l-183 -183h-488l-185 185v926l185 185h488z" />
    <glyph glyph-name="h" unicode="h" horiz-adv-x="1165" 
d="M982 1246v-209h-81v-778h81v-209h-380v209h81v298h-333v-298h80v-209h-380v209h81v778h-81v209h380v-209h-80v-272h333v272h-79v209h378zM0 987v309h479v-309h-79v-171h232v171h-79v309h478l1 -309h-80v-678h79l1 -309h-480v309h80v197h-232v-197h79v-309h-479v309h81
v678h-81zM456 1011v262h-432v-262h80v-725h-80v-262h432v262h-81v244h281v-244h-81v-262h432v235v27h-81v725h81v262h-429v-262h78v-219h-281v219h81z" />
    <glyph glyph-name="i" unicode="i" horiz-adv-x="612" 
d="M350 259v778h80v209v0h-380v-209h81v-778h-81v0v-209h380v209h-80zM24 1273v-262h80v-725h-80v-262h432v262h-81v725h81v260zM0 1296h479v-309h-79v-678h79v-309h-479v309h81v678h-81v309z" />
    <glyph glyph-name="j" unicode="j" horiz-adv-x="1069" 
d="M802 1246h81v-209h-81v-832l-155 -155h-442l-155 155v331h219v-232l45 -45h224l45 45v733h-80v209h80h219zM908 1273h-432v-262h81v-697l-29 -28h-203l-31 28v249h-270v-368l169 -171h464l170 171v816h81v262zM933 1296v-309h-81v-802l-184 -185h-483l-185 185v402h319
v-262l16 -16h183l15 16v662h-81v309h481z" />
    <glyph glyph-name="k" unicode="k" horiz-adv-x="1138" 
d="M849 1041l-254 -308l249 -474h111v-209h-447v209h102l-154 304l-106 -131v-173h27v-209h-327v209h81v782h-81v208h327v-208h-27v-299l242 299h-84v208h447v-208h-106zM980 1276h-499v-262h55l-161 -198v198h27v262h-378v-262h80v-728h-80v-262h378v262h-27v138l76 91
l117 -229h-87v-262h499v262h-119l-234 444l236 284h117v262zM1006 1300v-310h-132l-218 -264l218 -417h132v-309h-549v309h73l-84 163l-46 -57v-106h25v-309h-425v309h81v681h-81v310h425v-310h-25v-107l88 107h-31v310h549z" />
    <glyph glyph-name="l" unicode="l" horiz-adv-x="1030" 
d="M590 340v-81h-240v778h79v209h-379v-209h81v-778h-81v-209h749v290h-209zM540 390h307v-390h-847v309h81v678h-81v309h479v-309h-79v-678h140v81zM563 286h-188v725h81v262h-432v-262h80v-725h-80v-262h800v343h-261v-81z" />
    <glyph glyph-name="m" unicode="m" horiz-adv-x="1469" 
d="M1286 1246v-209h-80v-778h80v-209h-360v209h81v590q0 -1 -339 -597l-338 597v-590h80v-209h-360v209h81v778h-81v209h280l338 -597l339 597h279zM979 1296h358v-309h-81v-678h81v-309h-459v309h79v350l-289 -509l-288 509v-350h79v-309h-459v309h81v678h-81v309h358
l310 -546zM1313 1011v262h-321l-324 -572l-323 572h-321v-262h80v-725h-80v-262h411v262h-80v464l313 -552l312 552v-464h-79v-262h412v262h-81v725h81z" />
    <glyph glyph-name="n" unicode="n" horiz-adv-x="1170" 
d="M987 1246v-209h-81v-987h-299l-277 839v-630h79v-209h-359v209h81v778h-81v209h379l281 -799v590h-81v209h358zM1012 1273h-410v-262h81v-411l-236 673h-423v-262h80v-725h-80v-262h411v262h-80v440l234 -702h343v987h80v262zM1036 1296v-309h-79v-987h-385l-192 580
v-271h79v-309h-459v309h81v678h-81v309h464l195 -554v245h-81v309h458z" />
    <glyph glyph-name="o" unicode="o" horiz-adv-x="975" 
d="M856 1113v-930l-183 -183h-488l-185 185v926l185 185h488zM831 192l1 913l-170 168h-469l-169 -170v-908l169 -171h2h467zM652 1246l153 -153v-890l-153 -153h-447v0l-155 155v886l155 155h447zM587 304v688l-46 45h-227l-45 -45v-688l45 -45h227zM325 1011h206l29 -29
v-668l-29 -28h-206l-29 28v668zM536 325v647l-15 15h-186l-16 -15v-647l16 -16h186z" />
    <glyph glyph-name="p" unicode="p" horiz-adv-x="1049" 
d="M711 1246l155 -155v-472l-155 -155h-361v-205h80v-209h-380v209h81v778h-81v209h661zM350 1037v-364h252l45 45v274l-45 45h-252zM721 1273h-697v-262h80v-725h-80v-262h432v262h-81v151h346l170 172v492zM375 699v312h217l28 -29v-254l-30 -29h-215zM731 1296l185 -185
v-512l-185 -185h-331v-105h79v-309h-479v309h81v678h-81v309h731zM400 987v-264h182l15 15v234l-15 15h-182z" />
    <glyph glyph-name="q" unicode="q" horiz-adv-x="988" 
d="M325 1011h206l29 -29v-668l-29 -28h-206l-29 28v668zM536 325v647l-15 15h-186l-16 -15v-647l16 -16h186zM651 50l117 -218h-237l-117 218h-209v0l-155 155v886l155 155h447l153 -153v-890l-153 -153h-1zM587 304v688l-46 45h-227l-45 -45v-688l45 -45h227zM713 40
l138 -259h-350l-116 219h-200l-185 185v926l185 185h488l183 -183v-930zM516 -195h296l-129 240l148 147l1 913l-170 168h-469l-169 -170v-908l169 -171h206z" />
    <glyph glyph-name="r" unicode="r" horiz-adv-x="1008" 
d="M866 1091v-472l-150 -150l68 -210h82v-209h-234l-133 414h-149v-205h80v-209h-380v209h81v778h-81v209h661zM350 673h252l45 45v274l-45 45h-252v-364zM721 1273h-697v-262h80v-725h-80v-262h432v262h-81v151h104l133 -413h279v262h-87l-57 176l144 147v492zM375 699v312
h217l28 -29v-254l-30 -29h-215zM731 1296l185 -185v-512l-143 -143l48 -147h95v-309h-321l-133 414h-62v-105h79v-309h-479v309h81v678h-81v309h731zM400 987v-264h182l15 15v234l-15 15h-182z" />
    <glyph glyph-name="s" unicode="s" horiz-adv-x="948" 
d="M805 935h-218v57l-46 45h-227l-45 -45v-198l45 -46h332l159 -158v-387l-153 -153h-447l-155 155v157h219v-58l45 -45h227l46 45v200l-46 46h-331l-160 161v375l160 160h436l159 -160v-151zM657 1273h-457l-176 -177v-397l176 -176h330l30 -29v-180l-30 -28h-205l-31 28
v74h-270v-195l169 -169h469l169 168v408l-174 175h-332l-31 29v178l31 29h205l30 -29v-74h271v188zM668 1296l188 -190v-222h-320v88l-15 15h-186l-16 -15v-158l16 -15h333l188 -189v-428l-183 -182h-488l-185 185v227h319v-87l16 -16h186l15 16v159l-15 15h-331l-190 190
v417l190 190h478z" />
    <glyph glyph-name="t" unicode="t" horiz-adv-x="1066" 
d="M923 1246v-289h-208v80h-118v-778h81v-209h-380v209h80v0v778h-119v-80h-209v289h873zM24 1273v-341h260v80l67 -1v-725h-80v-262h434v262h-81v725h65v-81h261v343h-926zM0 1296h974v-390h-308v81h-19v-678h81v-309h-481v309h81v678h-19v-81l-309 2v388z" />
    <glyph glyph-name="u" unicode="u" horiz-adv-x="1108" 
d="M587 1244h378v-208h-81v-831l-154 -155h-444l-155 155v831h-81v208h380v-208h-80v-732l43 -45h227l46 45v732h-79v208zM24 1271v-260h80v-818l170 -169h468l169 169v818h81v260h-432v-260h81v-697l-31 -30h-205l-30 30v697h81v260h-432zM0 1295h479v-308h-80v-662l16 -16
h185l17 16v662h-81v308h480v-308h-81v-802l-183 -185h-488l-183 185v802h-81v308z" />
    <glyph glyph-name="v" unicode="v" horiz-adv-x="1114" 
d="M620 1246h355v-209h-80l-214 -987h-336l-214 987h-81v209h355v-209h-38l146 -712l144 712h-37v209zM594 1273v-262h31l-112 -557l-114 557h31v262h-406v-262h85l214 -987h380l212 987h85v262h-406zM570 1296h454v-309h-89l-214 -987h-417l-213 987h-91v309h454v-309h-27
l86 -414l84 414h-27v309z" />
    <glyph glyph-name="w" unicode="w" horiz-adv-x="1575" 
d="M1507 1246v-209h-103l-208 -987h-259l-157 744l-160 -744h-258l-209 987h-103v209h424v-209h-104l123 -613l176 822h219l176 -822l123 613h-2h-104v209h426zM1533 1273h-477v-262h99l-92 -459l-153 721h-261l-155 -721l-92 459h97v262h-475v-262h109l208 -987h300
l139 645l136 -645h300l208 987h109v262zM1557 1296v-309h-113l-208 -987h-340l-116 555l-119 -555h-340l-208 987h-113v309h525v-309h-95l64 -318l135 627h299l135 -627l64 318h-95v309h525z" />
    <glyph glyph-name="x" unicode="x" horiz-adv-x="1220" 
d="M649 1248l429 -2v-209h-108l-289 -388l289 -390h108v-209h-429v209h86l-172 232l-171 -232h86v-209h-428v209h106l291 390l-291 388h-106v209l428 2v-209h-86l171 -232l172 232h-86v209zM624 1273v-261h59l-120 -161l-119 161h60v261h-480v-262h121l269 -362l-269 -363
h-121v-261l480 -1v260h-60l119 163l120 -163h-59v-260l479 1v261h-119l-271 363l271 362h119v262h-479zM600 1296h528v-309h-133l-252 -338l252 -340h133v-307l-528 -2v308h36l-73 99l-72 -99h37v-308l-528 2v307h131l252 340l-252 338h-131v309h528v-307h-37l72 -98l73 98
h-36v307z" />
    <glyph glyph-name="y" unicode="y" horiz-adv-x="1010" 
d="M540 1246h328v-209h-88l-212 -480v-298h81v0v-209h-380v0v209h81v298l-214 480h-86v209h328v-209h-27l108 -237l106 237h-25v209zM513 1273v-262h12l-66 -147l-66 147h11v262h-380v-262h95l204 -461v-264h-81v-262h434v262h-27h-55v264l203 461h98v262h-382zM489 1296
h429v-309h-104l-195 -442v-236h80v-309h-480v309h80v236l-195 442h-104v309h429v-306l30 -69l30 69v306z" />
    <glyph glyph-name="z" unicode="z" horiz-adv-x="830" 
d="M479 355h209v-305h-638v209l397 778h-188v-79h-209v288h634v-209l-396 -778h191v96zM711 1273h-687v-341h260v80h120l-380 -746v-241h689v355h-261v-94h-121l380 746v241zM735 1296v-270l-365 -717h59v96h307v-405h-736v271l365 716h-56v-79h-309v388h735z" />
    <glyph glyph-name="exclamdown" unicode="&#xa1;" horiz-adv-x="411" 
d="M92 442h120l55 804h-215zM52 259v-209h217v209h-217zM294 284h-267v-260h267v260zM319 309v-309h-316v309h316zM294 1273h-269l42 -858h168zM321 1296l-64 -904h-212l-45 904h321z" />
    <glyph glyph-name="sterling" unicode="&#xa3;" horiz-adv-x="1086" 
d="M903 937h-219v55l-47 45h-225l-44 -45v-274h189v-168h-189v-291h535v-209h-753v500h-100v168h100v373l154 155h443l156 -155v-154zM757 1271h-464l-170 -170v-358h-99v-220h99v-499h805v260h-535v239h189v220h-189v239l31 29h203l30 -31v-69h271v190zM767 1296l186 -185
v-223h-319v82l-17 17h-183l-15 -15v-204h188v-269h-188v-190h534v-309h-854v499h-99v269h99v343l183 185h485z" />
    <glyph glyph-name="dieresis" unicode="&#xa8;" horiz-adv-x="1082" 
d="M277 1601v-189h189v189h-189zM642 1601v-189h189v189h-189zM493 1626h-242v-240h242v240zM516 1651v-289h-289v289h289zM858 1626h-243v-240h243v240zM881 1651v-289h-289v289h289z" />
    <glyph glyph-name="acute" unicode="&#xb4;" horiz-adv-x="751" 
d="M259 1414h99l84 188h-183v-188zM483 1628h-251v-241h143zM520 1653l-130 -289h-182v289h312z" />
    <glyph glyph-name="questiondown" unicode="&#xbf;" horiz-adv-x="941" 
d="M563 1246v-209h-217v209h217zM203 50l-153 153v362l296 247v49h217v-131l-296 -249v-177l46 -45h223l46 45v153h217v-254l-153 -153h-443zM321 1012h269v261h-269v-261zM296 987v309h318v-309h-318zM193 24h464l169 169v291h-269v-168l-31 -30h-201l-31 30v153l296 247
v170h-269v-60l-296 -249v-384zM183 0l-183 183v406l296 247v74h318v-204l-296 -249v-131l17 -17h181l15 17v182h318v-325l-181 -183h-485z" />
    <glyph glyph-name="Agrave" unicode="&#xc0;" 
d="M889 259h81v-209h-353v209h37l-23 121h-244l-24 -121h37v-209h-353v209h81l166 778h-35v209h499v-209h-37zM424 558h170l-86 416zM234 1273v-261h28l-156 -726h-86v-261h407v261h-32l14 67h200l13 -67h-32v-261h407v261h-86l-156 726h29v261h-550zM456 583l52 259
l54 -259h-106zM208 1296h599v-309h-23l146 -678h91v-307h-454v307h27l-5 21h-160l-5 -21h27v-307h-454v307h89l148 678h-26v309zM484 609h47l-23 114zM358 1602l84 -188h99v188h-183zM568 1628h-252l109 -241h143v241zM592 1653v-289h-182l-131 289h313z" />
    <glyph glyph-name="Aacute" unicode="&#xc1;" 
d="M889 259h81v-209h-353v209h37l-23 121h-244l-24 -121h37v-209h-353v209h81l166 778h-35v209h499v-209h-37zM424 558h170l-86 416zM234 1273v-261h28l-156 -726h-86v-261h407v261h-32l14 67h200l13 -67h-32v-261h407v261h-86l-156 726h29v261h-550zM456 583l52 259
l54 -259h-106zM208 1296h599v-309h-23l146 -678h91v-307h-454v307h27l-5 21h-160l-5 -21h27v-307h-454v307h89l148 678h-26v309zM484 609h47l-23 114zM444 1414h99l84 188h-183v-188zM668 1628h-251v-241h143zM705 1653l-130 -289h-182v289h312z" />
    <glyph glyph-name="Acircumflex" unicode="&#xc2;" 
d="M889 259h81v-209h-353v209h37l-23 121h-244l-24 -121h37v-209h-353v209h81l166 778h-35v209h499v-209h-37zM424 558h170l-86 416zM234 1273v-261h28l-156 -726h-86v-261h407v261h-32l14 67h200l13 -67h-32v-261h407v261h-86l-156 726h29v261h-550zM456 583l52 259
l54 -259h-106zM208 1296h599v-309h-23l146 -678h91v-307h-454v307h27l-5 21h-160l-5 -21h27v-307h-454v307h89l148 678h-26v309zM484 609h47l-23 114zM511 1515l103 -103h173v71l-118 118h-319l-116 -118v-71h173zM681 1626h-341l-133 -131v-109h212l92 92l93 -92h208v109z
M689 1651l148 -146v-143h-243l-83 82l-82 -82h-246v143l147 146h359z" />
    <glyph glyph-name="Atilde" unicode="&#xc3;" 
d="M889 259h81v-209h-353v209h37l-23 121h-244l-24 -121h37v-209h-353v209h81l166 778h-35v209h499v-209h-37zM424 558h170l-86 416zM234 1273v-261h28l-156 -726h-86v-261h407v261h-32l14 67h200l13 -67h-32v-261h407v261h-86l-156 726h29v261h-550zM456 583l52 259
l54 -259h-106zM208 1296h599v-309h-23l146 -678h91v-307h-454v307h27l-5 21h-160l-5 -21h27v-307h-454v307h89l148 678h-26v309zM484 609h47l-23 114zM219 1544v-130h106l124 84l111 -84h170l67 57v131h-106l-116 -79l-111 79h-178zM824 1629h-140l-109 -74l-103 74h-196
l-84 -74v-168h139l116 79l105 -79h188l84 71v171zM847 1653v-205l-99 -84h-205l-96 74l-107 -74h-172v203l99 86h212l96 -69l101 69h171z" />
    <glyph glyph-name="Adieresis" unicode="&#xc4;" 
d="M889 259h81v-209h-353v209h37l-23 121h-244l-24 -121h37v-209h-353v209h81l166 778h-35v209h499v-209h-37zM424 558h170l-86 416zM234 1273v-261h28l-156 -726h-86v-261h407v261h-32l14 67h200l13 -67h-32v-261h407v261h-86l-156 726h29v261h-550zM456 583l52 259
l54 -259h-106zM208 1296h599v-309h-23l146 -678h91v-307h-454v307h27l-5 21h-160l-5 -21h27v-307h-454v307h89l148 678h-26v309zM484 609h47l-23 114zM227 1601v-189h188v189h-188zM592 1601v-189h188v189h-188zM442 1626h-242v-240h242v240zM466 1651v-289h-289v289h289z
M807 1626h-242v-240h242v240zM831 1651v-289h-290v289h290z" />
    <glyph glyph-name="Aring" unicode="&#xc5;" 
d="M439 1412h161l34 34v161l-34 34h-161l-34 -34v-161zM484 1562h71v-69h-71v69zM610 1666h-181l-51 -48v-182l51 -50h181l49 50v182zM620 1692l64 -64v-202l-64 -64h-201l-64 64v202l64 64h201zM889 259h81v-209h-353v209h37l-23 121h-244l-24 -121h37v-209h-353v209h81
l166 778h-35v209h499v-209h-37zM424 558h170l-86 416zM234 1273v-261h28l-156 -726h-86v-261h407v261h-32l14 67h200l13 -67h-32v-261h407v261h-86l-156 726h29v261h-550zM456 583l52 259l54 -259h-106zM208 1296h599v-309h-23l146 -678h91v-307h-454v307h27l-5 21h-160
l-5 -21h27v-307h-454v307h89l148 678h-26v309zM484 609h47l-23 114z" />
    <glyph glyph-name="AE" unicode="&#xc6;" horiz-adv-x="1568" 
d="M1367 958h-208v81h-234v-282h232v-199h-232v-297h234v80h208v-289h-742v209h81v119h-294l-44 -119h81v-209h-399v209h81l279 778h-79v207h1036v-288zM476 558h230v481h-57zM1394 1273h-1090v-261h69l-260 -724h-89v-261h452v261h-71l25 67h249v-67h-80v-261h795v340h-261
v-79h-183v243h234v251h-234v230h183v-80h261v341zM513 585l155 427h11v-427h-166zM1417 1296v-388h-309v81h-134v-184h233v-297h-233v-197h134v81h309v-389h-842v308h81v20h-209l-6 -20h58v-308h-499v308h96l244 678h-59v307h1136zM546 609h110v302z" />
    <glyph glyph-name="Ccedilla" unicode="&#xc7;" horiz-adv-x="1029" 
d="M858 834h-221v158l-45 47h-227l-46 -47v-688l46 -45h227l45 45v174h221v-273l-155 -155h-151l80 -80v-111l-84 -83h-175v110h150v38l-126 126h-141l-155 155v888l155 155h447l155 -155v-259zM713 1273h-468l-169 -170v-908l169 -171h140l111 -111v-2h-148v-162h212
l99 100v131l-44 44h98l170 171v309h-271v-188l-30 -30h-205l-31 30v666l31 30h205l30 -30v-173h271v294zM723 1296l183 -183v-328h-317v187l-17 17h-185l-17 -17v-647l17 -16h185l17 16v203h317v-343l-183 -185h-50l10 -10v-151l-113 -113h-245v208h116l-66 66h-140
l-185 185v918v10l9 7l176 176h488z" />
    <glyph glyph-name="Egrave" unicode="&#xc8;" horiz-adv-x="1020" 
d="M50 1246h789v-289h-208v80h-281v-282h279v-198h-279v-298h281v81h208v-290h-789v209h81v778h-81v209zM864 1273h-840v-262h80v-725h-80v-262h840v341h-260v-79h-229v244h279v252h-279v229h229v-81h260v343zM888 1296v-390h-308v81h-180v-182h278v-299h-278v-197h180v81
h308v-390h-888v309h81v678h-81v309h888zM308 1602l84 -188h99v188h-183zM518 1628h-252l109 -241h143v241zM541 1653v-289h-181l-131 289h312z" />
    <glyph glyph-name="Eacute" unicode="&#xc9;" horiz-adv-x="1020" 
d="M50 1246h789v-289h-208v80h-281v-282h279v-198h-279v-298h281v81h208v-290h-789v209h81v778h-81v209zM864 1273h-840v-262h80v-725h-80v-262h840v341h-260v-79h-229v244h279v252h-279v229h229v-81h260v343zM888 1296v-390h-308v81h-180v-182h278v-299h-278v-197h180v81
h308v-390h-888v309h81v678h-81v309h888zM377 1414h99l84 188h-183v-188zM601 1628h-251v-241h143zM638 1653l-130 -289h-182v289h312z" />
    <glyph glyph-name="Ecircumflex" unicode="&#xca;" horiz-adv-x="1020" 
d="M50 1246h789v-289h-208v80h-281v-282h279v-198h-279v-298h281v81h208v-290h-789v209h81v778h-81v209zM864 1273h-840v-262h80v-725h-80v-262h840v341h-260v-79h-229v244h279v252h-279v229h229v-81h260v343zM888 1296v-390h-308v81h-180v-182h278v-299h-278v-197h180v81
h308v-390h-888v309h81v678h-81v309h888zM461 1515l102 -103h173v71l-117 118h-320l-116 -118v-71h173zM631 1626h-342l-133 -131v-109h212l93 92l92 -92h209v109zM639 1651l148 -146v-143h-244l-82 82l-83 -82h-245v143l146 146h360z" />
    <glyph glyph-name="Edieresis" unicode="&#xcb;" horiz-adv-x="1020" 
d="M50 1246h789v-289h-208v80h-281v-282h279v-198h-279v-298h281v81h208v-290h-789v209h81v778h-81v209zM864 1273h-840v-262h80v-725h-80v-262h840v341h-260v-79h-229v244h279v252h-279v229h229v-81h260v343zM888 1296v-390h-308v81h-180v-182h278v-299h-278v-197h180v81
h308v-390h-888v309h81v678h-81v309h888zM159 1601v-189h189v189h-189zM524 1601v-189h189v189h-189zM375 1626h-242v-240h242v240zM398 1651v-289h-289v289h289zM740 1626h-243v-240h243v240zM763 1651v-289h-289v289h289z" />
    <glyph glyph-name="Igrave" unicode="&#xcc;" horiz-adv-x="612" 
d="M350 259v778h80v209v0h-380v-209h81v-778h-81v0v-209h380v209h-80zM24 1273v-262h80v-725h-80v-262h432v262h-81v725h81v260zM0 1296h479v-309h-79v-678h79v-309h-479v309h81v678h-81v309zM106 1602l84 -188h99v188h-183zM316 1628h-252l109 -241h143v241zM340 1653v-289
h-182l-131 289h313z" />
    <glyph glyph-name="Iacute" unicode="&#xcd;" horiz-adv-x="612" 
d="M350 259v778h80v209v0h-380v-209h81v-778h-81v0v-209h380v209h-80zM24 1273v-262h80v-725h-80v-262h432v262h-81v725h81v260zM0 1296h479v-309h-79v-678h79v-309h-479v309h81v678h-81v309zM175 1414h99l84 188h-183v-188zM399 1628h-251v-241h143zM436 1653l-130 -289
h-182v289h312z" />
    <glyph glyph-name="Icircumflex" unicode="&#xce;" horiz-adv-x="612" 
d="M350 259v778h80v209v0h-380v-209h81v-778h-81v0v-209h380v209h-80zM24 1273v-262h80v-725h-80v-262h432v262h-81v725h81v260zM0 1296h479v-309h-79v-678h79v-309h-479v309h81v678h-81v309zM242 1515l103 -103h173v71l-118 118h-319l-116 -118v-71h173zM412 1626h-341
l-133 -131v-109h212l92 92l93 -92h208v109zM420 1651l148 -146v-143h-243l-83 82l-82 -82h-246v143l147 146h359z" />
    <glyph glyph-name="Idieresis" unicode="&#xcf;" horiz-adv-x="612" 
d="M350 259v778h80v209v0h-380v-209h81v-778h-81v0v-209h380v209h-80zM24 1273v-262h80v-725h-80v-262h432v262h-81v725h81v260zM0 1296h479v-309h-79v-678h79v-309h-479v309h81v678h-81v309zM-42 1601v-189h189v189h-189zM323 1601v-189h189v189h-189zM174 1626h-242v-240
h242v240zM197 1651v-289h-289v289h289zM539 1626h-243v-240h243v240zM562 1651v-289h-289v289h289z" />
    <glyph glyph-name="Eth" unicode="&#xd0;" horiz-adv-x="1049" 
d="M590 1011l30 -29v-668l-30 -28h-215v252h79v220h-79v253h215zM597 325v647l-17 15h-180v-205h78v-267h-78v-206h182zM50 1246h661l155 -155v-886l-155 -155h-661v209h81v306h-81v168h81v304h-81v209zM647 304v688l-45 45h-252v-304h79v-168h-79v-306h252zM731 1296
l185 -185v-926l-185 -185h-731v309h81v206h-81v267h81v205h-81v309h731zM891 195v908l-170 170h-697v-262h80v-253h-80v-220h80v-252h-80v-262h697z" />
    <glyph glyph-name="Ntilde" unicode="&#xd1;" horiz-adv-x="1170" 
d="M987 1246v-209h-81v-987h-299l-277 839v-630h79v-209h-359v209h81v778h-81v209h379l281 -799v590h-81v209h358zM1012 1273h-410v-262h81v-411l-236 673h-423v-262h80v-725h-80v-262h411v262h-80v440l234 -702h343v987h80v262zM1036 1296v-309h-79v-987h-385l-192 580
v-271h79v-309h-459v309h81v678h-81v309h464l195 -554v245h-81v309h458zM235 1544v-130h106l125 84l111 -84h170l67 57v131h-106l-116 -79l-111 79h-178zM841 1629h-140l-109 -74l-103 74h-196l-84 -74v-168h139l116 79l104 -79h189l84 71v171zM864 1653v-205l-99 -84h-205
l-96 74l-107 -74h-172v203l99 86h212l96 -69l101 69h171z" />
    <glyph glyph-name="Ograve" unicode="&#xd2;" horiz-adv-x="975" 
d="M856 1113v-930l-183 -183h-488l-185 185v926l185 185h488zM831 192l1 913l-170 168h-469l-169 -170v-908l169 -171h2h467zM652 1246l153 -153v-890l-153 -153h-447v0l-155 155v886l155 155h447zM587 304v688l-46 45h-227l-45 -45v-688l45 -45h227zM325 1011h206l29 -29
v-668l-29 -28h-206l-29 28v668zM536 325v647l-15 15h-186l-16 -15v-647l16 -16h186zM274 1602l84 -188h99v188h-183zM484 1628h-252l109 -241h143v241zM508 1653v-289h-182l-131 289h313z" />
    <glyph glyph-name="Oacute" unicode="&#xd3;" horiz-adv-x="975" 
d="M856 1113v-930l-183 -183h-488l-185 185v926l185 185h488zM831 192l1 913l-170 168h-469l-169 -170v-908l169 -171h2h467zM652 1246l153 -153v-890l-153 -153h-447v0l-155 155v886l155 155h447zM587 304v688l-46 45h-227l-45 -45v-688l45 -45h227zM325 1011h206l29 -29
v-668l-29 -28h-206l-29 28v668zM536 325v647l-15 15h-186l-16 -15v-647l16 -16h186zM343 1414h99l84 188h-183v-188zM567 1628h-251v-241h143zM604 1653l-130 -289h-182v289h312z" />
    <glyph glyph-name="Ocircumflex" unicode="&#xd4;" horiz-adv-x="975" 
d="M856 1113v-930l-183 -183h-488l-185 185v926l185 185h488zM831 192l1 913l-170 168h-469l-169 -170v-908l169 -171h2h467zM652 1246l153 -153v-890l-153 -153h-447v0l-155 155v886l155 155h447zM587 304v688l-46 45h-227l-45 -45v-688l45 -45h227zM325 1011h206l29 -29
v-668l-29 -28h-206l-29 28v668zM536 325v647l-15 15h-186l-16 -15v-647l16 -16h186zM444 1515l102 -103h174v71l-118 118h-320l-116 -118v-71h174zM614 1626h-342l-132 -131v-109h211l93 92l92 -92h209v109zM622 1651l148 -146v-143h-244l-82 82l-82 -82h-246v143l146 146
h360z" />
    <glyph glyph-name="Otilde" unicode="&#xd5;" horiz-adv-x="975" 
d="M856 1113v-930l-183 -183h-488l-185 185v926l185 185h488zM831 192l1 913l-170 168h-469l-169 -170v-908l169 -171h2h467zM652 1246l153 -153v-890l-153 -153h-447v0l-155 155v886l155 155h447zM587 304v688l-46 45h-227l-45 -45v-688l45 -45h227zM325 1011h206l29 -29
v-668l-29 -28h-206l-29 28v668zM536 325v647l-15 15h-186l-16 -15v-647l16 -16h186zM134 1544v-130h106l125 84l111 -84h170l67 57v131h-106l-116 -79l-111 79h-178zM740 1629h-140l-109 -74l-103 74h-196l-84 -74v-168h139l116 79l104 -79h189l84 71v171zM763 1653v-205
l-99 -84h-205l-96 74l-107 -74h-172v203l99 86h212l96 -69l101 69h171z" />
    <glyph glyph-name="Odieresis" unicode="&#xd6;" horiz-adv-x="975" 
d="M856 1113v-930l-183 -183h-488l-185 185v926l185 185h488zM831 192l1 913l-170 168h-469l-169 -170v-908l169 -171h2h467zM652 1246l153 -153v-890l-153 -153h-447v0l-155 155v886l155 155h447zM587 304v688l-46 45h-227l-45 -45v-688l45 -45h227zM325 1011h206l29 -29
v-668l-29 -28h-206l-29 28v668zM536 325v647l-15 15h-186l-16 -15v-647l16 -16h186zM159 1601v-189h189v189h-189zM524 1601v-189h189v189h-189zM375 1626h-242v-240h242v240zM398 1651v-289h-289v289h289zM740 1626h-243v-240h243v240zM763 1651v-289h-289v289h289z" />
    <glyph glyph-name="Oslash" unicode="&#xd8;" horiz-adv-x="1049" 
d="M883 1246l-62 -108l43 -45v-890l-153 -153h-445h-2l-52 54l-32 -54h-93l66 111l-44 44v886l155 155h447l54 -52l30 52h88zM328 992v-535l318 535l-44 45h-229zM646 304v538l-316 -539l43 -44h229zM930 1273h-148l-22 -37l-37 37h-469l-170 -170v-908l37 -39l-79 -132h153
l22 37l37 -37v0h469l168 169v912l-39 37zM355 553v429l30 29h205l24 -22zM385 286l-23 22l258 439v-433l-30 -28h-205zM970 1296l-87 -149l32 -34v-930l-182 -183h-341h-148l-22 22l-14 -22h-208l91 153l-32 32v926l185 185h489l22 -21l12 21h203zM395 987l-17 -15v-333
l205 346l-3 2h-185zM392 311l3 -2h185l15 16v334z" />
    <glyph glyph-name="Ugrave" unicode="&#xd9;" horiz-adv-x="1108" 
d="M587 1244h378v-208h-81v-831l-154 -155h-444l-155 155v831h-81v208h380v-208h-80v-732l43 -45h227l46 45v732h-79v208zM24 1271v-260h80v-818l170 -169h468l169 169v818h81v260h-432v-260h81v-697l-31 -30h-205l-30 30v697h81v260h-432zM0 1295h479v-308h-80v-662l16 -16
h185l17 16v662h-81v308h480v-308h-81v-802l-183 -185h-488l-183 185v802h-81v308zM358 1602l84 -188h99v188h-183zM568 1628h-252l109 -241h143v241zM592 1653v-289h-182l-131 289h313z" />
    <glyph glyph-name="Uacute" unicode="&#xda;" horiz-adv-x="1108" 
d="M587 1244h378v-208h-81v-831l-154 -155h-444l-155 155v831h-81v208h380v-208h-80v-732l43 -45h227l46 45v732h-79v208zM24 1271v-260h80v-818l170 -169h468l169 169v818h81v260h-432v-260h81v-697l-31 -30h-205l-30 30v697h81v260h-432zM0 1295h479v-308h-80v-662l16 -16
h185l17 16v662h-81v308h480v-308h-81v-802l-183 -185h-488l-183 185v802h-81v308zM461 1414h99l84 188h-183v-188zM685 1628h-251v-241h143zM722 1653l-130 -289h-182v289h312z" />
    <glyph glyph-name="Ucircumflex" unicode="&#xdb;" horiz-adv-x="1108" 
d="M587 1244h378v-208h-81v-831l-154 -155h-444l-155 155v831h-81v208h380v-208h-80v-732l43 -45h227l46 45v732h-79v208zM24 1271v-260h80v-818l170 -169h468l169 169v818h81v260h-432v-260h81v-697l-31 -30h-205l-30 30v697h81v260h-432zM0 1295h479v-308h-80v-662l16 -16
h185l17 16v662h-81v308h480v-308h-81v-802l-183 -185h-488l-183 185v802h-81v308zM511 1515l103 -103h173v71l-118 118h-319l-116 -118v-71h173zM681 1626h-341l-133 -131v-109h212l92 92l93 -92h208v109zM689 1651l148 -146v-143h-243l-83 82l-82 -82h-246v143l147 146h359
z" />
    <glyph glyph-name="Udieresis" unicode="&#xdc;" horiz-adv-x="1108" 
d="M244 1601v-189h188v189h-188zM592 1601v-189h188v189h-188zM459 1626h-242v-240h242v240zM483 1651v-289h-290v289h290zM807 1626h-242v-240h242v240zM831 1651v-289h-290v289h290zM587 1244h378v-208h-81v-831l-154 -155h-444l-155 155v831h-81v208h380v-208h-80v-732
l43 -45h227l46 45v732h-79v208zM24 1271v-260h80v-818l170 -169h468l169 169v818h81v260h-432v-260h81v-697l-31 -30h-205l-30 30v697h81v260h-432zM0 1295h479v-308h-80v-662l16 -16h185l17 16v662h-81v308h480v-308h-81v-802l-183 -185h-488l-183 185v802h-81v308z" />
    <glyph glyph-name="Yacute" unicode="&#xdd;" horiz-adv-x="1010" 
d="M540 1246h328v-209h-88l-212 -480v-298h81v0v-209h-380v0v209h81v298l-214 480h-86v209h328v-209h-27l108 -237l106 237h-25v209zM513 1273v-262h12l-66 -147l-66 147h11v262h-380v-262h95l204 -461v-264h-81v-262h434v262h-27h-55v264l203 461h98v262h-382zM489 1296
h429v-309h-104l-195 -442v-236h80v-309h-480v309h80v236l-195 442h-104v309h429v-306l30 -69l30 69v306zM410 1414h99l84 188h-183v-188zM634 1628h-251v-241h143zM671 1653l-130 -289h-182v289h312z" />
    <glyph glyph-name="Thorn" unicode="&#xde;" horiz-adv-x="1010" 
d="M350 926h361l155 -154v-115v-16v-116l-155 -155h-361v-111h80v-209h-380v209h81v382v16v380h-81v209h380v-209h-80v-111zM647 641v16v17l-45 44h-252v-61v-16v-63h252l45 46v17zM731 977l185 -183v-137v-16v-137l-185 -183h-331v-12h79v-309h-479v309h81v332v16v330h-81
v309h479v-309h-79v-10h331zM891 641v16v127l-170 169h-346v58h81v262h-432v-262h80v-354v-16v-355h-80v-262h432v262h-81v59h346l170 170v126zM375 693h215l30 -31v-5v-16v-5l-30 -31h-215v36v16v36zM597 657v-5l-15 17h-182v-12v-16v-12h182l15 15v-3v16z" />
    <glyph glyph-name="agrave" unicode="&#xe0;" 
d="M895 259h80v-209h-355v209h37l-23 119h-244l-23 -119h37v-209h-354v209h81l212 987h340zM427 558h170l-84 414zM323 1271l-214 -985h-85v-262h406v262h-31l13 67h200l13 -67h-31v-262h406v262h-85l-212 985h-380zM459 583l54 259l52 -259h-106zM303 1296h420l212 -987h89
v-309h-454v309h27l-5 21h-160l-5 -21h27v-309h-454v309h91zM489 607h47l-23 116zM375 1602l84 -188h99v188h-183zM585 1628h-252l109 -241h143v241zM609 1653v-289h-182l-131 289h313z" />
    <glyph glyph-name="aacute" unicode="&#xe1;" 
d="M895 259h80v-209h-355v209h37l-23 119h-244l-23 -119h37v-209h-354v209h81l212 987h340zM427 558h170l-84 414zM323 1271l-214 -985h-85v-262h406v262h-31l13 67h200l13 -67h-31v-262h406v262h-85l-212 985h-380zM459 583l54 259l52 -259h-106zM303 1296h420l212 -987h89
v-309h-454v309h27l-5 21h-160l-5 -21h27v-309h-454v309h91zM489 607h47l-23 116zM427 1414h99l84 188h-183v-188zM651 1628h-251v-241h143zM688 1653l-130 -289h-182v289h312z" />
    <glyph glyph-name="acircumflex" unicode="&#xe2;" 
d="M895 259h80v-209h-355v209h37l-23 119h-244l-23 -119h37v-209h-354v209h81l212 987h340zM427 558h170l-84 414zM323 1271l-214 -985h-85v-262h406v262h-31l13 67h200l13 -67h-31v-262h406v262h-85l-212 985h-380zM459 583l54 259l52 -259h-106zM303 1296h420l212 -987h89
v-309h-454v309h27l-5 21h-160l-5 -21h27v-309h-454v309h91zM489 607h47l-23 116zM511 1515l102 -103h174v71l-118 118h-320l-116 -118v-71h174zM681 1626h-342l-133 -131v-109h212l93 92l92 -92h209v109zM689 1651l148 -146v-143h-244l-82 82l-83 -82h-245v143l146 146h360z
" />
    <glyph glyph-name="atilde" unicode="&#xe3;" 
d="M895 259h80v-209h-355v209h37l-23 119h-244l-23 -119h37v-209h-354v209h81l212 987h340zM427 558h170l-84 414zM323 1271l-214 -985h-85v-262h406v262h-31l13 67h200l13 -67h-31v-262h406v262h-85l-212 985h-380zM459 583l54 259l52 -259h-106zM303 1296h420l212 -987h89
v-309h-454v309h27l-5 21h-160l-5 -21h27v-309h-454v309h91zM489 607h47l-23 116zM218 1544v-130h106l125 84l111 -84h170l67 57v131h-106l-116 -79l-111 79h-178zM824 1629h-140l-109 -74l-103 74h-196l-84 -74v-168h139l116 79l104 -79h189l84 71v171zM847 1653v-205
l-99 -84h-205l-96 74l-107 -74h-172v203l99 86h212l96 -69l101 69h171z" />
    <glyph glyph-name="adieresis" unicode="&#xe4;" 
d="M895 259h80v-209h-355v209h37l-23 119h-244l-23 -119h37v-209h-354v209h81l212 987h340zM427 558h170l-84 414zM323 1271l-214 -985h-85v-262h406v262h-31l13 67h200l13 -67h-31v-262h406v262h-85l-212 985h-380zM459 583l54 259l52 -259h-106zM303 1296h420l212 -987h89
v-309h-454v309h27l-5 21h-160l-5 -21h27v-309h-454v309h91zM489 607h47l-23 116zM227 1601v-189h188v189h-188zM592 1601v-189h188v189h-188zM442 1626h-242v-240h242v240zM466 1651v-289h-289v289h289zM807 1626h-242v-240h242v240zM831 1651v-289h-290v289h290z" />
    <glyph glyph-name="aring" unicode="&#xe5;" 
d="M439 1412h161l34 34v161l-34 34h-161l-34 -34v-161zM484 1562h71v-69h-71v69zM610 1666h-181l-51 -48v-182l51 -50h181l49 50v182zM620 1692l64 -64v-202l-64 -64h-201l-64 64v202l64 64h201zM895 259h80v-209h-355v209h37l-23 119h-244l-23 -119h37v-209h-354v209h81
l212 987h340zM427 558h170l-84 414zM323 1271l-214 -985h-85v-262h406v262h-31l13 67h200l13 -67h-31v-262h406v262h-85l-212 985h-380zM459 583l54 259l52 -259h-106zM303 1296h420l212 -987h89v-309h-454v309h27l-5 21h-160l-5 -21h27v-309h-454v309h91zM489 607h47
l-23 116z" />
    <glyph glyph-name="ae" unicode="&#xe6;" horiz-adv-x="1568" 
d="M1367 958h-208v81h-234v-282h232v-199h-232v-297h234v80h208v-289h-742v209h81v119h-294l-44 -119h81v-209h-399v209h81l352 985h884v-288zM706 558v481h-57l-173 -481h230zM1417 908h-309v81h-134v-184h233v-297h-233v-197h134v81h309v-389h-842v308h81v20h-209l-6 -20
h58v-308h-499v308h96l355 985h6h19h941v-388zM950 1012h183v-80h261v341h-927l-354 -985h-89v-261h452v261h-71l25 67h249v-67h-80v-261h795v340h-261v-79h-183v243h234v251h-234v230zM513 585l155 427h11v-427h-166zM656 609v302l-110 -302h110z" />
    <glyph glyph-name="ccedilla" unicode="&#xe7;" horiz-adv-x="1029" 
d="M858 834h-221v158l-45 47h-227l-46 -47v-688l46 -45h227l45 45v174h221v-273l-155 -155h-151l80 -80v-111l-84 -83h-175v110h150v38l-126 126h-141l-155 155v888l155 155h447l155 -155v-259zM713 1273h-468l-169 -170v-908l169 -171h140l111 -111v-2h-148v-162h212
l99 100v131l-44 44h98l170 171v309h-271v-188l-30 -30h-205l-31 30v666l31 30h205l30 -30v-173h271v294zM723 1296l183 -183v-328h-317v187l-17 17h-185l-17 -17v-647l17 -16h185l17 16v203h317v-343l-183 -185h-50l10 -10v-151l-113 -113h-245v208h116l-66 66h-140
l-185 185v918v10l9 7l176 176h488z" />
    <glyph glyph-name="egrave" unicode="&#xe8;" horiz-adv-x="1020" 
d="M50 1246h789v-289h-208v80h-281v-282h279v-198h-279v-298h281v81h208v-290h-789v209h81v778h-81v209zM864 1273h-840v-262h80v-725h-80v-262h840v341h-260v-79h-229v244h279v252h-279v229h229v-81h260v343zM888 1296v-390h-308v81h-180v-182h278v-299h-278v-197h180v81
h308v-390h-888v309h81v678h-81v309h888zM308 1602l84 -188h99v188h-183zM518 1628h-252l109 -241h143v241zM541 1653v-289h-181l-131 289h312z" />
    <glyph glyph-name="eacute" unicode="&#xe9;" horiz-adv-x="1020" 
d="M50 1246h789v-289h-208v80h-281v-282h279v-198h-279v-298h281v81h208v-290h-789v209h81v778h-81v209zM864 1273h-840v-262h80v-725h-80v-262h840v341h-260v-79h-229v244h279v252h-279v229h229v-81h260v343zM888 1296v-390h-308v81h-180v-182h278v-299h-278v-197h180v81
h308v-390h-888v309h81v678h-81v309h888zM377 1414h99l84 188h-183v-188zM601 1628h-251v-241h143zM638 1653l-130 -289h-182v289h312z" />
    <glyph glyph-name="ecircumflex" unicode="&#xea;" horiz-adv-x="1020" 
d="M50 1246h789v-289h-208v80h-281v-282h279v-198h-279v-298h281v81h208v-290h-789v209h81v778h-81v209zM864 1273h-840v-262h80v-725h-80v-262h840v341h-260v-79h-229v244h279v252h-279v229h229v-81h260v343zM888 1296v-390h-308v81h-180v-182h278v-299h-278v-197h180v81
h308v-390h-888v309h81v678h-81v309h888zM461 1515l102 -103h174v71l-118 118h-320l-116 -118v-71h174zM631 1626h-342l-133 -131v-109h212l93 92l92 -92h209v109zM639 1651l148 -146v-143h-244l-82 82l-83 -82h-245v143l146 146h360z" />
    <glyph glyph-name="edieresis" unicode="&#xeb;" horiz-adv-x="1020" 
d="M50 1246h789v-289h-208v80h-281v-282h279v-198h-279v-298h281v81h208v-290h-789v209h81v778h-81v209zM864 1273h-840v-262h80v-725h-80v-262h840v341h-260v-79h-229v244h279v252h-279v229h229v-81h260v343zM888 1296v-390h-308v81h-180v-182h278v-299h-278v-197h180v81
h308v-390h-888v309h81v678h-81v309h888zM160 1601v-189h188v189h-188zM525 1601v-189h188v189h-188zM375 1626h-242v-240h242v240zM399 1651v-289h-290v289h290zM740 1626h-242v-240h242v240zM763 1651v-289h-289v289h289z" />
    <glyph glyph-name="igrave" unicode="&#xec;" horiz-adv-x="612" 
d="M350 259v778h80v209v0h-380v-209h81v-778h-81v0v-209h380v209h-80zM24 1273v-262h80v-725h-80v-262h432v262h-81v725h81v260zM0 1296h479v-309h-79v-678h79v-309h-479v309h81v678h-81v309zM106 1602l84 -188h99v188h-183zM316 1628h-252l109 -241h143v241zM340 1653v-289
h-182l-131 289h313z" />
    <glyph glyph-name="iacute" unicode="&#xed;" horiz-adv-x="612" 
d="M350 259v778h80v209v0h-380v-209h81v-778h-81v0v-209h380v209h-80zM24 1273v-262h80v-725h-80v-262h432v262h-81v725h81v260zM0 1296h479v-309h-79v-678h79v-309h-479v309h81v678h-81v309zM175 1414h99l84 188h-183v-188zM399 1628h-251v-241h143zM436 1653l-130 -289
h-182v289h312z" />
    <glyph glyph-name="icircumflex" unicode="&#xee;" horiz-adv-x="612" 
d="M350 259v778h80v209v0h-380v-209h81v-778h-81v0v-209h380v209h-80zM24 1273v-262h80v-725h-80v-262h432v262h-81v725h81v260zM0 1296h479v-309h-79v-678h79v-309h-479v309h81v678h-81v309zM242 1515l102 -103h174v71l-118 118h-320l-116 -118v-71h174zM412 1626h-342
l-133 -131v-109h212l93 92l92 -92h209v109zM420 1651l148 -146v-143h-244l-82 82l-83 -82h-245v143l146 146h360z" />
    <glyph glyph-name="idieresis" unicode="&#xef;" horiz-adv-x="612" 
d="M350 259v778h80v209v0h-380v-209h81v-778h-81v0v-209h380v209h-80zM24 1273v-262h80v-725h-80v-262h432v262h-81v725h81v260zM0 1296h479v-309h-79v-678h79v-309h-479v309h81v678h-81v309zM-42 1601v-189h188v189h-188zM323 1601v-189h188v189h-188zM173 1626h-242v-240
h242v240zM197 1651v-289h-289v289h289zM538 1626h-242v-240h242v240zM562 1651v-289h-290v289h290z" />
    <glyph glyph-name="eth" unicode="&#xf0;" horiz-adv-x="1049" 
d="M590 1011l30 -29v-668l-30 -28h-215v252h79v220h-79v253h215zM597 325v647l-17 15h-180v-205h78v-267h-78v-206h182zM50 1246h661l155 -155v-886l-155 -155h-661v209h81v306h-81v168h81v304h-81v209zM647 304v688l-45 45h-252v-304h79v-168h-79v-306h252zM731 1296
l185 -185v-926l-185 -185h-731v309h81v206h-81v267h81v205h-81v309h731zM891 195v908l-170 170h-697v-262h80v-253h-80v-220h80v-252h-80v-262h697z" />
    <glyph glyph-name="ntilde" unicode="&#xf1;" horiz-adv-x="1170" 
d="M987 1246v-209h-81v-987h-299l-277 839v-630h79v-209h-359v209h81v778h-81v209h379l281 -799v590h-81v209h358zM1012 1273h-410v-262h81v-411l-236 673h-423v-262h80v-725h-80v-262h411v262h-80v440l234 -702h343v987h80v262zM1036 1296v-309h-79v-987h-385l-192 580
v-271h79v-309h-459v309h81v678h-81v309h464l195 -554v245h-81v309h458zM252 1544v-130h106l125 84l111 -84h170l67 57v131h-106l-116 -79l-111 79h-178zM858 1629h-140l-109 -74l-103 74h-196l-84 -74v-168h139l116 79l104 -79h189l84 71v171zM881 1653v-205l-99 -84h-205
l-96 74l-107 -74h-172v203l99 86h212l96 -69l101 69h171z" />
    <glyph glyph-name="ograve" unicode="&#xf2;" horiz-adv-x="975" 
d="M856 1113v-930l-183 -183h-488l-185 185v926l185 185h488zM831 192l1 913l-170 168h-469l-169 -170v-908l169 -171h2h467zM652 1246l153 -153v-890l-153 -153h-447v0l-155 155v886l155 155h447zM587 304v688l-46 45h-227l-45 -45v-688l45 -45h227zM325 1011h206l29 -29
v-668l-29 -28h-206l-29 28v668zM536 325v647l-15 15h-186l-16 -15v-647l16 -16h186zM291 1602l84 -188h99v188h-183zM501 1628h-252l109 -241h143v241zM525 1653v-289h-182l-131 289h313z" />
    <glyph glyph-name="oacute" unicode="&#xf3;" horiz-adv-x="975" 
d="M856 1113v-930l-183 -183h-488l-185 185v926l185 185h488zM831 192l1 913l-170 168h-469l-169 -170v-908l169 -171h2h467zM652 1246l153 -153v-890l-153 -153h-447v0l-155 155v886l155 155h447zM587 304v688l-46 45h-227l-45 -45v-688l45 -45h227zM325 1011h206l29 -29
v-668l-29 -28h-206l-29 28v668zM536 325v647l-15 15h-186l-16 -15v-647l16 -16h186zM343 1414h99l84 188h-183v-188zM567 1628h-251v-241h143zM604 1653l-130 -289h-182v289h312z" />
    <glyph glyph-name="ocircumflex" unicode="&#xf4;" horiz-adv-x="975" 
d="M856 1113v-930l-183 -183h-488l-185 185v926l185 185h488zM831 192l1 913l-170 168h-469l-169 -170v-908l169 -171h2h467zM652 1246l153 -153v-890l-153 -153h-447v0l-155 155v886l155 155h447zM587 304v688l-46 45h-227l-45 -45v-688l45 -45h227zM325 1011h206l29 -29
v-668l-29 -28h-206l-29 28v668zM536 325v647l-15 15h-186l-16 -15v-647l16 -16h186zM427 1515l102 -103h174v71l-118 118h-320l-116 -118v-71h174zM597 1626h-342l-133 -131v-109h212l93 92l92 -92h209v109zM605 1651l148 -146v-143h-244l-82 82l-83 -82h-245v143l146 146
h360z" />
    <glyph glyph-name="otilde" unicode="&#xf5;" horiz-adv-x="975" 
d="M856 1113v-930l-183 -183h-488l-185 185v926l185 185h488zM831 192l1 913l-170 168h-469l-169 -170v-908l169 -171h2h467zM652 1246l153 -153v-890l-153 -153h-447v0l-155 155v886l155 155h447zM587 304v688l-46 45h-227l-45 -45v-688l45 -45h227zM325 1011h206l29 -29
v-668l-29 -28h-206l-29 28v668zM536 325v647l-15 15h-186l-16 -15v-647l16 -16h186zM151 1544v-130h106l125 84l111 -84h169l68 57v131h-106l-116 -79l-111 79h-178zM757 1629h-140l-109 -74l-103 74h-197l-84 -74v-168h140l116 79l104 -79h189l84 71v171zM780 1653v-205
l-99 -84h-205l-96 74l-108 -74h-171v203l99 86h212l96 -69l101 69h171z" />
    <glyph glyph-name="odieresis" unicode="&#xf6;" horiz-adv-x="1082" 
d="M143 1601v-189h188v189h-188zM508 1601v-189h188v189h-188zM358 1626h-242v-240h242v240zM382 1651v-289h-290v289h290zM723 1626h-242v-240h242v240zM747 1651v-289h-290v289h290zM856 1113v-930l-183 -183h-488l-185 185v926l185 185h488zM831 192l1 913l-170 168h-469
l-169 -170v-908l169 -171h2h467zM652 1246l153 -153v-890l-153 -153h-447v0l-155 155v886l155 155h447zM587 304v688l-46 45h-227l-45 -45v-688l45 -45h227zM325 1011h206l29 -29v-668l-29 -28h-206l-29 28v668zM536 325v647l-15 15h-186l-16 -15v-647l16 -16h186z" />
    <glyph glyph-name="oslash" unicode="&#xf8;" horiz-adv-x="1049" 
d="M883 1246l-62 -108l43 -45v-890l-153 -153h-445h-2l-52 54l-32 -54h-93l66 111l-44 44v886l155 155h447l54 -52l30 52h88zM328 992v-535l318 535l-44 45h-229zM646 304v538l-316 -539l43 -44h229zM930 1273h-148l-22 -37l-37 37h-469l-170 -170v-908l37 -39l-79 -132h153
l22 37l37 -37v0h469l168 169v912l-39 37zM355 553v429l30 29h205l24 -22zM385 286l-23 22l258 439v-433l-30 -28h-205zM970 1296l-87 -149l32 -34v-930l-182 -183h-341h-148l-22 22l-14 -22h-208l91 153l-32 32v926l185 185h489l22 -21l12 21h203zM395 987l-17 -15v-333
l205 346l-3 2h-185zM392 311l3 -2h185l15 16v334z" />
    <glyph glyph-name="ugrave" unicode="&#xf9;" horiz-adv-x="1108" 
d="M587 1244h378v-208h-81v-831l-154 -155h-444l-155 155v831h-81v208h380v-208h-80v-732l43 -45h227l46 45v732h-79v208zM24 1271v-260h80v-818l170 -169h468l169 169v818h81v260h-432v-260h81v-697l-31 -30h-205l-30 30v697h81v260h-432zM0 1295h479v-308h-80v-662l16 -16
h185l17 16v662h-81v308h480v-308h-81v-802l-183 -185h-488l-183 185v802h-81v308zM358 1602l84 -188h99v188h-183zM568 1628h-252l109 -241h143v241zM592 1653v-289h-182l-131 289h313z" />
    <glyph glyph-name="uacute" unicode="&#xfa;" horiz-adv-x="1108" 
d="M587 1244h378v-208h-81v-831l-154 -155h-444l-155 155v831h-81v208h380v-208h-80v-732l43 -45h227l46 45v732h-79v208zM24 1271v-260h80v-818l170 -169h468l169 169v818h81v260h-432v-260h81v-697l-31 -30h-205l-30 30v697h81v260h-432zM0 1295h479v-308h-80v-662l16 -16
h185l17 16v662h-81v308h480v-308h-81v-802l-183 -185h-488l-183 185v802h-81v308zM461 1414h99l84 188h-183v-188zM685 1628h-251v-241h143zM722 1653l-130 -289h-182v289h312z" />
    <glyph glyph-name="ucircumflex" unicode="&#xfb;" horiz-adv-x="1108" 
d="M587 1244h378v-208h-81v-831l-154 -155h-444l-155 155v831h-81v208h380v-208h-80v-732l43 -45h227l46 45v732h-79v208zM24 1271v-260h80v-818l170 -169h468l169 169v818h81v260h-432v-260h81v-697l-31 -30h-205l-30 30v697h81v260h-432zM0 1295h479v-308h-80v-662l16 -16
h185l17 16v662h-81v308h480v-308h-81v-802l-183 -185h-488l-183 185v802h-81v308zM511 1515l102 -103h174v71l-118 118h-320l-116 -118v-71h174zM681 1626h-342l-133 -131v-109h212l93 92l92 -92h209v109zM689 1651l148 -146v-143h-244l-82 82l-83 -82h-245v143l146 146h360
z" />
    <glyph glyph-name="udieresis" unicode="&#xfc;" horiz-adv-x="1108" 
d="M244 1601v-189h188v189h-188zM592 1601v-189h188v189h-188zM459 1626h-242v-240h242v240zM483 1651v-289h-290v289h290zM807 1626h-242v-240h242v240zM831 1651v-289h-290v289h290zM587 1244h378v-208h-81v-831l-154 -155h-444l-155 155v831h-81v208h380v-208h-80v-732
l43 -45h227l46 45v732h-79v208zM24 1271v-260h80v-818l170 -169h468l169 169v818h81v260h-432v-260h81v-697l-31 -30h-205l-30 30v697h81v260h-432zM0 1295h479v-308h-80v-662l16 -16h185l17 16v662h-81v308h480v-308h-81v-802l-183 -185h-488l-183 185v802h-81v308z" />
    <glyph glyph-name="yacute" unicode="&#xfd;" horiz-adv-x="1010" 
 />
    <glyph glyph-name="thorn" unicode="&#xfe;" horiz-adv-x="1010" 
d="M350 926h361l155 -154v-115v-16v-116l-155 -155h-361v-111h80v-209h-380v209h81v382v16v380h-81v209h380v-209h-80v-111zM647 641v16v17l-45 44h-252v-61v-16v-63h252l45 46v17zM731 977l185 -183v-137v-16v-137l-185 -183h-331v-12h79v-309h-479v309h81v332v16v330h-81
v309h479v-309h-79v-10h331zM891 641v16v127l-170 169h-346v58h81v262h-432v-262h80v-354v-16v-355h-80v-262h432v262h-81v59h346l170 170v126zM375 693h215l30 -31v-5v-16v-5l-30 -31h-215v36v16v36zM597 657v-5l-15 17h-182v-12v-16v-12h182l15 15v-3v16z" />
    <glyph glyph-name="ydieresis" unicode="&#xff;" horiz-adv-x="1010" 
d="M193 1601v-189h189v189h-189zM541 1601v-189h189v189h-189zM409 1626h-243v-240h243v240zM432 1651v-289h-289v289h289zM757 1626h-242v-240h242v240zM780 1651v-289h-289v289h289z" />
    <glyph glyph-name="Lslash" unicode="&#x141;" horiz-adv-x="1069" 
d="M350 617v-358h291v81h208v-290h-799v209h81v261l-81 -37v168l81 37v349h-81v209h379v-209h-79v-252l79 37v-168zM590 390h308v-390h-898v309h81v135l-81 -37v274l81 37v269h-81v309h479v-309h-79v-124l79 35v-274l-79 -37v-278h190v81zM874 24v343h-260v-81h-239v314
l81 36v228l-81 -37v184h81v262h-432v-262h80v-306l-80 -36v-228l80 37v-192h-80v-262h850z" />
    <glyph glyph-name="lslash" unicode="&#x142;" horiz-adv-x="1069" 
d="M350 617v-358h291v81h208v-290h-799v209h81v261l-81 -37v168l81 37v349h-81v209h379v-209h-79v-252l79 37v-168zM590 390h308v-390h-898v309h81v135l-81 -37v274l81 37v269h-81v309h479v-309h-79v-124l79 35v-274l-79 -37v-278h190v81zM874 24v343h-260v-81h-239v314
l81 36v228l-81 -37v184h81v262h-432v-262h80v-306l-80 -36v-228l80 37v-192h-80v-262h850z" />
    <glyph glyph-name="OE" unicode="&#x152;" horiz-adv-x="1432" 
d="M1251 957h-209v80h-233v-282h232v-198h-232v-298h233v81h209v-290h-1046v0l-155 155v886l155 155h1046v-289zM587 304v688l-46 45h-227l-45 -45v-688l45 -45h227zM1278 1273h-1085l-169 -170v-908l169 -170h2h1083v342h-261v-81h-181v245h232v251h-232v230h181v-80h261
v341zM325 286l-29 28v668l29 30h206l29 -30v-668l-29 -28h-206zM1301 1296v-390h-307v81h-135v-182h232v-299h-232v-197h135v81h307v-390h-1116v0l-185 185v928l185 183h1116zM335 987l-16 -15v-647l16 -16h186l15 16v647l-15 15h-186z" />
    <glyph glyph-name="oe" unicode="&#x153;" horiz-adv-x="1432" 
d="M1251 957h-209v80h-233v-282h232v-198h-232v-298h233v81h209v-290h-1046v0l-155 155v886l155 155h1046v-289zM587 304v688l-46 45h-227l-45 -45v-688l45 -45h227zM1278 1273h-1085l-169 -170v-908l169 -170h2h1083v342h-261v-81h-181v245h232v251h-232v230h181v-80h261
v341zM325 286l-29 28v668l29 30h206l29 -30v-668l-29 -28h-206zM1301 1296v-390h-307v81h-135v-182h232v-299h-232v-197h135v81h307v-390h-1116v0l-185 185v928l185 183h1116zM335 987l-16 -15v-647l16 -16h186l15 16v647l-15 15h-186z" />
    <glyph glyph-name="Scaron" unicode="&#x160;" horiz-adv-x="948" 
d="M605 1362h-360l-146 146v143h246l82 -82l82 82h244v-143zM597 1387l131 131v110h-208l-93 -93l-92 93h-212v-110l133 -131h341zM530 1601l-103 -103l-104 103h-173v-71l116 -118h319l118 118v71h-173zM668 1296h-478l-190 -190v-417l190 -190h331l15 -15v-159l-15 -16
h-186l-16 16v87h-319v-227l185 -185h488l183 182v428l-188 189h-333l-16 15v158l16 15h186l15 -15v-88h320v222zM657 1273l174 -177v-188h-271v74l-30 29h-205l-31 -29v-178l31 -29h332l174 -175v-408l-169 -168h-469l-169 169v195h270v-74l31 -28h205l30 28v180l-30 29
h-330l-176 176v397l176 177h457zM587 935h218v151l-159 160h-436l-160 -160v-375l160 -161h331l46 -46v-200l-46 -45h-227l-45 45v58h-219v-157l155 -155h447l153 153v387l-159 158h-332l-45 46v198l45 45h227l46 -45v-57z" />
    <glyph glyph-name="scaron" unicode="&#x161;" horiz-adv-x="948" 
 />
    <glyph glyph-name="Ydieresis" unicode="&#x178;" horiz-adv-x="1010" 
d="M193 1601v-189h189v189h-189zM541 1601v-189h189v189h-189zM409 1626h-243v-240h243v240zM432 1651v-289h-289v289h289zM757 1626h-242v-240h242v240zM780 1651v-289h-289v289h289z" />
    <glyph glyph-name="Zcaron" unicode="&#x17d;" horiz-adv-x="830" 
d="M479 355h209v-305h-638v209l397 778h-188v-79h-209v288h634v-209l-396 -778h191v96zM711 1273h-687v-341h260v80h120l-380 -746v-241h689v355h-261v-94h-121l380 746v241zM735 1296v-270l-365 -717h59v96h307v-405h-736v271l365 716h-56v-79h-309v388h735zM555 1362h-360
l-146 146v143h245l83 -82l82 82h244v-143zM547 1386l131 132v108h-209l-92 -91l-93 91h-212v-108l133 -132h342zM479 1601l-102 -103l-104 103h-174v-73l116 -116h320l118 116v73h-174z" />
    <glyph glyph-name="zcaron" unicode="&#x17e;" horiz-adv-x="830" 
 />
    <glyph glyph-name="circumflex" unicode="&#x2c6;" horiz-adv-x="802" 
d="M360 1515l102 -103h174v71l-118 118h-320l-116 -118v-71h174zM530 1626h-342l-133 -131v-109h212l93 92l92 -92h209v109zM538 1651l148 -146v-143h-244l-82 82l-83 -82h-245v143l146 146h360z" />
    <glyph glyph-name="caron" unicode="&#x2c7;" horiz-adv-x="802" 
d="M538 1362h-360l-146 146v143h245l83 -82l82 82h244v-143zM530 1386l131 132v108h-209l-92 -91l-93 91h-212v-108l133 -132h342zM462 1601l-102 -103l-104 103h-174v-73l116 -116h320l118 116v73h-174z" />
    <glyph glyph-name="tilde" unicode="&#x2dc;" horiz-adv-x="780" 
d="M50 1544v-130h106l125 84l111 -84h170l67 57v131h-106l-116 -79l-111 79h-178zM656 1629h-140l-109 -74l-103 74h-196l-84 -74v-168h139l116 79l104 -79h189l84 71v171zM679 1653v-205l-99 -84h-205l-96 74l-107 -74h-172v203l99 86h212l96 -69l101 69h171z" />
    <glyph glyph-name="endash" unicode="&#x2013;" horiz-adv-x="820" 
d="M50 715v-169h572v169h-572zM649 740h-625v-220h625v220zM673 765v-269h-673v269h673z" />
    <glyph glyph-name="emdash" unicode="&#x2014;" horiz-adv-x="1313" 
d="M50 715v-169h1124v169h-1124zM1201 740h-1177v-220h1177v220zM1224 765v-269h-1224v269h1224z" />
    <glyph glyph-name="quoteleft" unicode="&#x2018;" horiz-adv-x="450" 
d="M0 829v244l180 223h138v-467h-318zM24 852h269v421h-103l-166 -209v-212zM267 1246h-64l-153 -190v-177h217v367z" />
    <glyph glyph-name="quoteright" unicode="&#x2019;" horiz-adv-x="450" 
d="M50 879h64l153 190v177h-217v-367zM293 1273h-269v-421h102l167 209v212zM318 1296v-243l-180 -224h-138v467h318z" />
    <glyph glyph-name="quotesinglbase" unicode="&#x201a;" horiz-adv-x="450" 
d="M50 -146h64l153 190v176h-217v-366zM293 247h-269v-420h102l167 208v212zM318 271v-244l-180 -224h-138v468h318z" />
    <glyph glyph-name="quotedblleft" unicode="&#x201c;" horiz-adv-x="867" 
d="M0 829v244l180 223h138v-467h-318zM24 852h269v421h-103l-166 -209v-212zM417 829v244l180 223h138v-467h-318zM441 852h269v421h-103l-166 -209v-212zM267 1246h-64l-153 -190v-177h217v367zM684 1246h-64l-153 -190v-177h217v367z" />
    <glyph glyph-name="quotedblright" unicode="&#x201d;" horiz-adv-x="867" 
d="M50 879h64l153 190v177h-217v-367zM467 879h64l153 190v177h-217v-367zM293 1273h-269v-421h102l167 209v212zM318 1296v-243l-180 -224h-138v467h318zM710 1273h-269v-421h102l167 209v212zM735 1296v-243l-180 -224h-138v467h318z" />
    <glyph glyph-name="quotedblbase" unicode="&#x201e;" horiz-adv-x="867" 
d="M50 -163h64l153 190v176h-217v-366zM467 -163h64l153 190v176h-217v-366zM293 230h-269v-420h102l167 208v212zM318 254v-244l-180 -224h-138v468h318zM710 230h-269v-420h102l167 208v212zM735 254v-244l-180 -224h-138v468h318z" />
    <glyph glyph-name="bullet" unicode="&#x2022;" horiz-adv-x="692" 
d="M138 901h323l89 -89v-326l-89 -89h-323l-88 87v330zM481 952l119 -120v-366l-119 -120h-365l-116 116v372l116 118h365zM575 476v346l-104 104h-345l-102 -102v-352l102 -102h345z" />
    <glyph glyph-name="Euro" unicode="&#x20ac;" horiz-adv-x="1175" 
d="M994 937h-217v58l-42 42h-229l-45 -45v-210h428l-60 -91h-370l2 -124h282l-62 -93h-220v-171l43 -44h229l44 42v61h217v-157l-157 -155h-438l-4 4l-151 151v269h-146l57 91v2h89l-2 124h-148l61 91h89v309l155 155h438l157 -155v-154zM849 1273h-462l-170 -170v-294h-76
l-96 -145h170l2 -70h-76l-8 -12l-83 -135h167v-252l170 -171h462l170 171v193h-269v-75l-27 -27h-208l-29 28v133h208l100 147h-308l-2 70h358l96 145h-452v173l30 29h207l27 -26v-74h269v190zM859 1296l183 -185v-223h-316v87l-13 12h-187l-17 -15v-140h475l-128 -191h-347
v-24h328l-129 -193h-199v-99l16 -16h188l13 14v89h316v-227l-183 -185h-482l-184 185v239h-186l121 193h64v24h-192l128 191h65v279l184 185h482z" />
    <glyph glyph-name="minus" unicode="&#x2212;" horiz-adv-x="1037" 
d="M50 715v-169h826v169h-826zM903 740h-879v-220h879v220zM926 765v-269h-926v269h926z" />
    </font>
</defs>
</svg>
